<?xml version="1.0" encoding="UTF-8" standalone="no"?>
<!-- Created with Inkscape (http://www.inkscape.org/) -->

<svg
   xmlns:dc="http://purl.org/dc/elements/1.1/"
   xmlns:cc="http://creativecommons.org/ns#"
   xmlns:rdf="http://www.w3.org/1999/02/22-rdf-syntax-ns#"
   xmlns:svg="http://www.w3.org/2000/svg"
   xmlns="http://www.w3.org/2000/svg"
   xmlns:sodipodi="http://sodipodi.sourceforge.net/DTD/sodipodi-0.dtd"
   xmlns:inkscape="http://www.inkscape.org/namespaces/inkscape"
   width="159.1875"
   height="390.06131"
   id="svg2"
   sodipodi:version="0.32"
   inkscape:version="0.48.2 r9819"
   sodipodi:docname="Army-FRA-OR-06 (alt).svg"
   version="1.0">
  <defs
     id="defs4" />
  <sodipodi:namedview
     id="base"
     pagecolor="#ffffff"
     bordercolor="#666666"
     borderopacity="1.0"
     inkscape:pageopacity="0.0"
     inkscape:pageshadow="2"
     inkscape:zoom="0.7"
     inkscape:cx="-316.04987"
     inkscape:cy="61.299596"
     inkscape:document-units="px"
     inkscape:current-layer="layer1"
     showgrid="true"
     inkscape:window-width="1270"
     inkscape:window-height="945"
     inkscape:window-x="0"
     inkscape:window-y="25"
     fit-margin-top="0"
     fit-margin-left="0"
     fit-margin-right="0"
     fit-margin-bottom="0"
     inkscape:window-maximized="0" />
  <metadata
     id="metadata7">
    <rdf:RDF>
      <cc:Work
         rdf:about="">
        <dc:format>image/svg+xml</dc:format>
        <dc:type
           rdf:resource="http://purl.org/dc/dcmitype/StillImage" />
        <dc:title></dc:title>
      </cc:Work>
    </rdf:RDF>
  </metadata>
  <g
     inkscape:label="Calque 1"
     inkscape:groupmode="layer"
     id="layer1"
     transform="translate(-314.90207,25.532133)">
    <g
       id="g11992">
      <g
         id="g10152" />
    </g>
    <g
       id="g2878"
       transform="matrix(0,1,-1,0,688.97152,90.538207)">
      <path
         inkscape:connector-curvature="0"
         style="fill:#151f3c;fill-opacity:1;fill-rule:evenodd;stroke:none"
         d="m 7.69418,233.6632 c 0.02064,-6.8e-4 0.04186,6.8e-4 0.0625,0 -0.03277,-1.55354 -0.0625,-1.9375 -0.0625,-1.9375 l 0,1.9375 z"
         id="path1905" />
      <path
         inkscape:connector-curvature="0"
         style="fill:#526738;fill-opacity:1;fill-rule:evenodd;stroke:none"
         d="m -31.91599,351.16735 -84.15435,-56.05245 90.56783,-56.65493 c 100.21618,0.0658 155.09311,-10.17222 299.13723,-18.93824 l 0.35624,150.36022 C 129.79681,361.56208 78.02183,351.63675 -31.91599,351.16735 z"
         id="path2852"
         sodipodi:nodetypes="cccccc" />
      <path
         inkscape:connector-curvature="0"
         style="fill:#20240b;fill-opacity:1;fill-rule:evenodd;stroke:none"
         d="m -13.11931,230.12767 c 0.11945,5.22516 -0.22538,35.62807 -0.61508,129.79997 l 277.49107,14.14181 -0.37252,-159.1875 -276.50347,15.24572 z"
         id="path2760"
         sodipodi:nodetypes="ccccc" />
      <path
         sodipodi:type="arc"
         style="fill:#cdb900;fill-opacity:1;fill-rule:evenodd;stroke:#000000;stroke-width:1px;stroke-linecap:butt;stroke-linejoin:miter;stroke-opacity:1"
         id="path2762"
         sodipodi:cx="307.14285"
         sodipodi:cy="368.07648"
         sodipodi:rx="15.714286"
         sodipodi:ry="21.428572"
         d="m 322.85714,368.07648 c 0,11.83467 -7.03553,21.42857 -15.71429,21.42857 -8.67876,0 -15.71428,-9.5939 -15.71428,-21.42857 0,-11.83468 7.03552,-21.42857 15.71428,-21.42857 8.67876,0 15.71429,9.59389 15.71429,21.42857 z"
         transform="matrix(0,-1.005178,0.697384,0,-327.9279,603.4314)" />
      <path
         inkscape:connector-curvature="0"
         style="fill:#ccb700;fill-opacity:1;fill-rule:evenodd;stroke:#000000;stroke-width:0.45854327px;stroke-linecap:butt;stroke-linejoin:miter;stroke-opacity:1"
         d="m 90.042219,330.74116 9.66948,-6.39034 -8.460796,-9.23049 c -12.313674,-2.47077 -9.214765,-3.5413 -15.10856,-9.2305 l -30.217118,-41.1822 -1.813019,2.13012 45.930013,63.90341 z"
         id="path8220"
         sodipodi:nodetypes="ccccccc" />
      <path
         inkscape:connector-curvature="0"
         style="fill:#ccb700;fill-opacity:1;fill-rule:evenodd;stroke:#000000;stroke-width:0.45854327px;stroke-linecap:butt;stroke-linejoin:miter;stroke-opacity:1"
         d="m 90.536052,258.91446 9.669478,6.39034 -10.436141,10.51786 c -12.807514,3.11446 -6.745585,0.96657 -13.133212,7.94313 l -30.217119,41.1822 -1.813019,-2.13012 45.930013,-63.90341 z"
         id="path9107"
         sodipodi:nodetypes="ccccccc" />
      <g
         transform="matrix(0,-0.260457,0.161385,0,-8.961678,24.00721)"
         id="g7275">
        <path
           inkscape:connector-curvature="0"
           style="fill:#ccb700;fill-opacity:1;fill-rule:evenodd;stroke:#000000;stroke-width:0.79555011px;stroke-linecap:butt;stroke-linejoin:miter;stroke-opacity:1"
           d="m -1042.2036,466.27216 c -15.4406,-58.29352 -18.5211,-29.30755 -18.0694,-97.21527 0.4518,-67.90771 6.5869,-54.35013 24.2045,-145.13203 14.0038,103.64862 17.8068,80.08358 17.3551,147.9913 -0.4517,67.90772 -17.1409,60.72561 -23.4902,94.356 z"
           id="path4585"
           sodipodi:nodetypes="cscsc" />
        <g
           id="g6367"
           transform="translate(-7.142857,1.428571)">
          <path
             inkscape:connector-curvature="0"
             transform="translate(-116.0704,196.9958)"
             id="path5472"
             d="m -919.30674,262.16253 10.73531,-119.65337 7.85714,-102.857138 15,102.857138 -33.59245,119.65337 z"
             style="fill:#ccb700;fill-opacity:1;fill-rule:evenodd;stroke:#000000;stroke-width:1px;stroke-linecap:butt;stroke-linejoin:miter;stroke-opacity:1"
             sodipodi:nodetypes="ccccc" />
          <path
             inkscape:connector-curvature="0"
             id="path5474"
             d="m -1033.7035,459.66849 24.8477,-117.80638 0.7143,-85 11.4286,97.85714 -36.9906,104.94924 z"
             style="fill:#ccb700;fill-opacity:1;fill-rule:evenodd;stroke:#000000;stroke-width:1px;stroke-linecap:butt;stroke-linejoin:miter;stroke-opacity:1"
             sodipodi:nodetypes="ccccc" />
          <path
             inkscape:connector-curvature="0"
             id="path5476"
             d="m -1033.0399,461.35196 35.80706,-76.847 0,-106.42857 -8.57146,96.42858 -27.2356,86.84699 z"
             style="fill:#ccb700;fill-opacity:1;fill-rule:evenodd;stroke:#000000;stroke-width:1px;stroke-linecap:butt;stroke-linejoin:miter;stroke-opacity:1"
             sodipodi:nodetypes="ccccc" />
        </g>
        <g
           id="g6380"
           transform="matrix(-1,0,0,1,-2073.654,1.210959)">
          <path
             inkscape:connector-curvature="0"
             transform="translate(-116.0704,196.9958)"
             id="path6382"
             d="m -919.30674,262.16253 10.73531,-119.65337 0,-104.28571 22.85714,104.28571 -33.59245,119.65337 z"
             style="fill:#ccb700;fill-opacity:1;fill-rule:evenodd;stroke:#000000;stroke-width:1px;stroke-linecap:butt;stroke-linejoin:miter;stroke-opacity:1"
             sodipodi:nodetypes="ccccc" />
          <path
             inkscape:connector-curvature="0"
             id="path6384"
             d="m -1033.7035,459.66849 24.8477,-117.80638 -2.8571,-85.71428 12.85714,99.28571 -34.84774,104.23495 z"
             style="fill:#ccb700;fill-opacity:1;fill-rule:evenodd;stroke:#000000;stroke-width:1px;stroke-linecap:butt;stroke-linejoin:miter;stroke-opacity:1"
             sodipodi:nodetypes="ccccc" />
          <path
             inkscape:connector-curvature="0"
             id="path6386"
             d="m -1033.0399,461.35196 35.09278,-78.27557 -2.14288,-107.14285 -5.7143,98.57143 -27.2356,86.84699 z"
             style="fill:#ccb700;fill-opacity:1;fill-rule:evenodd;stroke:#000000;stroke-width:1px;stroke-linecap:butt;stroke-linejoin:miter;stroke-opacity:1"
             sodipodi:nodetypes="ccccc" />
        </g>
        <path
           sodipodi:type="arc"
           style="fill:#ccb700;fill-opacity:1;stroke:#000000;stroke-width:4;stroke-miterlimit:4;stroke-opacity:1;stroke-dasharray:none;stroke-dashoffset:0"
           id="path4581"
           sodipodi:cx="-934.28571"
           sodipodi:cy="342.50916"
           sodipodi:rx="54.285713"
           sodipodi:ry="57.142857"
           d="m -879.99999,342.50916 c 0,31.55912 -24.30454,57.14285 -54.28572,57.14285 -29.98117,0 -54.28571,-25.58373 -54.28571,-57.14285 0,-31.55913 24.30454,-57.14286 54.28571,-57.14286 29.98118,0 54.28572,25.58373 54.28572,57.14286 z"
           transform="translate(-107.5193,153.5672)" />
        <path
           sodipodi:type="arc"
           style="fill:#ccb700;fill-opacity:1;stroke:#000000;stroke-width:4;stroke-miterlimit:4;stroke-opacity:1;stroke-dasharray:none;stroke-dashoffset:0"
           id="path4583"
           sodipodi:cx="-934.28571"
           sodipodi:cy="259.65201"
           sodipodi:rx="37.142857"
           sodipodi:ry="11.428572"
           d="m -897.14285,259.65201 c 0,6.31182 -16.62942,11.42857 -37.14286,11.42857 -20.51343,0 -37.14285,-5.11675 -37.14285,-11.42857 0,-6.31183 16.62942,-11.42857 37.14285,-11.42857 20.51344,0 37.14286,5.11674 37.14286,11.42857 z"
           transform="matrix(1.011992,0,0,0.597031,-95.30548,287.0988)" />
      </g>
      <path
         inkscape:connector-curvature="0"
         sodipodi:nodetypes="ccc"
         id="path7331"
         d="m 19.138321,303.90495 -7.107532,-10.773 8.15512,-10.59969"
         style="fill:none;stroke:#f00000;stroke-width:4.48662376;stroke-linecap:butt;stroke-linejoin:miter;stroke-miterlimit:4;stroke-opacity:1;stroke-dasharray:none" />
      <path
         inkscape:connector-curvature="0"
         sodipodi:nodetypes="ccc"
         id="path8218"
         d="m 10.365688,303.90495 -7.1075319,-10.773 8.1551199,-10.59969"
         style="fill:none;stroke:#f00000;stroke-width:4.48662376;stroke-linecap:butt;stroke-linejoin:miter;stroke-miterlimit:4;stroke-opacity:1;stroke-dasharray:none" />
      <path
         inkscape:connector-curvature="0"
         sodipodi:nodetypes="ccccccc"
         id="path10161"
         d="m 258.4296,215.71922 -20.98994,1.35563 -62.44679,80.62874 60.19291,74.24298 20.4615,0.91152 -59.43078,-75.0341 62.2131,-82.10477 z"
         style="fill:#ccb700;fill-opacity:1;fill-rule:evenodd;stroke:none" />
      <path
         inkscape:connector-curvature="0"
         sodipodi:nodetypes="ccccccc"
         id="path10165"
         d="m 232.50352,216.87731 -22.96692,1.35563 -59.45966,79.5536 59.46967,72.60149 21.75111,1.60785 -60.62849,-74.08894 61.83429,-81.02963 z"
         style="fill:#ccb700;fill-opacity:1;fill-rule:evenodd;stroke:none" />
      <path
         inkscape:connector-curvature="0"
         sodipodi:nodetypes="ccccccc"
         id="path6478"
         d="m 206.21432,218.39589 -22.96692,1.35563 -56.24537,78.83931 57.32681,71.17292 20.1746,0.85024 -57.98055,-72.2599 59.69143,-79.9582 z"
         style="fill:#ccb700;fill-opacity:1;fill-rule:evenodd;stroke:none" />
    </g>
  </g>
</svg>
