<?xml version="1.0" encoding="UTF-8" standalone="no"?>
<!-- Created with Inkscape (http://www.inkscape.org/) -->

<svg
   xmlns:dc="http://purl.org/dc/elements/1.1/"
   xmlns:cc="http://creativecommons.org/ns#"
   xmlns:rdf="http://www.w3.org/1999/02/22-rdf-syntax-ns#"
   xmlns:svg="http://www.w3.org/2000/svg"
   xmlns="http://www.w3.org/2000/svg"
   xmlns:sodipodi="http://sodipodi.sourceforge.net/DTD/sodipodi-0.dtd"
   xmlns:inkscape="http://www.inkscape.org/namespaces/inkscape"
   width="159.1875"
   height="390.06128"
   id="svg2"
   sodipodi:version="0.32"
   inkscape:version="0.48.2 r9819"
   sodipodi:docname="Army-FRA-OR-03 (alt).svg"
   version="1.0">
  <defs
     id="defs4" />
  <sodipodi:namedview
     id="base"
     pagecolor="#ffffff"
     bordercolor="#666666"
     borderopacity="1.0"
     inkscape:pageopacity="0.0"
     inkscape:pageshadow="2"
     inkscape:zoom="0.7"
     inkscape:cx="-65.72334"
     inkscape:cy="91.550028"
     inkscape:document-units="px"
     inkscape:current-layer="layer1"
     showgrid="true"
     inkscape:window-width="1270"
     inkscape:window-height="945"
     inkscape:window-x="0"
     inkscape:window-y="25"
     fit-margin-top="0"
     fit-margin-left="0"
     fit-margin-right="0"
     fit-margin-bottom="0"
     inkscape:window-maximized="0" />
  <metadata
     id="metadata7">
    <rdf:RDF>
      <cc:Work
         rdf:about="">
        <dc:format>image/svg+xml</dc:format>
        <dc:type
           rdf:resource="http://purl.org/dc/dcmitype/StillImage" />
        <dc:title></dc:title>
      </cc:Work>
    </rdf:RDF>
  </metadata>
  <g
     inkscape:label="Calque 1"
     inkscape:groupmode="layer"
     id="layer1"
     transform="translate(-314.90207,25.532129)">
    <g
       id="g4622"
       transform="translate(-19.28571,126.4286)">
      <g
         id="g2840"
         transform="translate(11.42857,1.428571)" />
    </g>
    <g
       transform="matrix(0,1,-1,0,890.49212,89.941881)"
       id="g10159">
      <path
         inkscape:connector-curvature="0"
         style="fill:#151f3c;fill-opacity:1;fill-rule:evenodd;stroke:none"
         d="m 8.290505,435.1838 c 0.02064,-6.8e-4 0.04186,6.8e-4 0.0625,0 -0.03277,-1.55354 -0.0625,-1.9375 -0.0625,-1.9375 l 0,1.9375 z"
         id="path1905" />
      <path
         inkscape:connector-curvature="0"
         style="fill:#526738;fill-opacity:1;fill-rule:evenodd;stroke:none"
         d="m -31.319665,552.68795 -84.154345,-56.05245 90.567825,-56.65493 c 100.21618,0.0657 155.093115,-10.17222 299.137225,-18.93824 l 0.35624,150.36022 C 130.39314,563.08268 78.618155,553.15735 -31.319665,552.68795 z"
         id="path2852"
         sodipodi:nodetypes="cccccc" />
      <path
         inkscape:connector-curvature="0"
         style="fill:#20240b;fill-opacity:1;fill-rule:evenodd;stroke:none"
         d="m -12.522985,431.64827 c 0.11945,5.22516 -0.22538,35.62807 -0.61508,129.79997 L 264.353,575.59005 263.98049,416.40255 -12.522985,431.64827 z"
         id="path2760"
         sodipodi:nodetypes="ccccc" />
      <path
         sodipodi:type="arc"
         style="fill:#cdb900;fill-opacity:1;fill-rule:evenodd;stroke:#000000;stroke-width:1px;stroke-linecap:butt;stroke-linejoin:miter;stroke-opacity:1"
         id="path2762"
         sodipodi:cx="307.14285"
         sodipodi:cy="368.07648"
         sodipodi:rx="15.714286"
         sodipodi:ry="21.428572"
         d="m 322.85714,368.07648 c 0,11.83467 -7.03553,21.42857 -15.71429,21.42857 -8.67876,0 -15.71428,-9.5939 -15.71428,-21.42857 0,-11.83468 7.03552,-21.42857 15.71428,-21.42857 8.67876,0 15.71429,9.59389 15.71429,21.42857 z"
         transform="matrix(0,-1.005178,0.697384,0,-327.3316,804.952)" />
      <g
         id="g9109"
         transform="matrix(0.691372,0,0,0.901159,372.5136,195.2281)">
        <path
           inkscape:connector-curvature="0"
           sodipodi:nodetypes="ccccccc"
           id="path8220"
           d="m -407.70393,374.00022 13.98593,-7.09125 -12.23769,-10.24291 c -17.81049,-2.74177 -13.32823,-3.92972 -21.85301,-10.24292 l -43.70602,-45.69915 -2.62235,2.36376 66.43314,70.91247 z"
           style="fill:#ccb700;fill-opacity:1;fill-rule:evenodd;stroke:#000000;stroke-width:0.58092988px;stroke-linecap:butt;stroke-linejoin:miter;stroke-opacity:1" />
        <path
           inkscape:connector-curvature="0"
           sodipodi:nodetypes="ccccccc"
           id="path9107"
           d="m -406.98965,294.29541 13.98593,7.09125 -15.09483,11.67148 c -18.52478,3.45606 -9.75681,1.07258 -18.99587,8.81435 l -43.70602,45.69915 -2.62235,-2.36376 66.43314,-70.91247 z"
           style="fill:#ccb700;fill-opacity:1;fill-rule:evenodd;stroke:#000000;stroke-width:0.58092988px;stroke-linecap:butt;stroke-linejoin:miter;stroke-opacity:1" />
        <g
           id="g7275"
           transform="matrix(0,-0.289025,0.233427,0,-550.9031,33.62305)">
          <path
             inkscape:connector-curvature="0"
             sodipodi:nodetypes="cscsc"
             id="path4585"
             d="m -1042.2036,466.27216 c -15.4406,-58.29352 -18.5211,-29.30755 -18.0694,-97.21527 0.4518,-67.90771 6.5869,-54.35013 24.2045,-145.13203 14.0038,103.64862 17.8068,80.08358 17.3551,147.9913 -0.4517,67.90772 -17.1409,60.72561 -23.4902,94.356 z"
             style="fill:#ccb700;fill-opacity:1;fill-rule:evenodd;stroke:#000000;stroke-width:0.79555011px;stroke-linecap:butt;stroke-linejoin:miter;stroke-opacity:1" />
          <g
             transform="translate(-7.142857,1.428571)"
             id="g6367">
            <path
               inkscape:connector-curvature="0"
               sodipodi:nodetypes="ccccc"
               style="fill:#ccb700;fill-opacity:1;fill-rule:evenodd;stroke:#000000;stroke-width:1px;stroke-linecap:butt;stroke-linejoin:miter;stroke-opacity:1"
               d="m -919.30674,262.16253 10.73531,-119.65337 7.85714,-102.857138 15,102.857138 -33.59245,119.65337 z"
               id="path5472"
               transform="translate(-116.0704,196.9958)" />
            <path
               inkscape:connector-curvature="0"
               sodipodi:nodetypes="ccccc"
               style="fill:#ccb700;fill-opacity:1;fill-rule:evenodd;stroke:#000000;stroke-width:1px;stroke-linecap:butt;stroke-linejoin:miter;stroke-opacity:1"
               d="m -1033.7035,459.66849 24.8477,-117.80638 0.7143,-85 11.4286,97.85714 -36.9906,104.94924 z"
               id="path5474" />
            <path
               inkscape:connector-curvature="0"
               sodipodi:nodetypes="ccccc"
               style="fill:#ccb700;fill-opacity:1;fill-rule:evenodd;stroke:#000000;stroke-width:1px;stroke-linecap:butt;stroke-linejoin:miter;stroke-opacity:1"
               d="m -1033.0399,461.35196 35.80706,-76.847 0,-106.42857 -8.57146,96.42858 -27.2356,86.84699 z"
               id="path5476" />
          </g>
          <g
             transform="matrix(-1,0,0,1,-2073.654,1.210959)"
             id="g6380">
            <path
               inkscape:connector-curvature="0"
               sodipodi:nodetypes="ccccc"
               style="fill:#ccb700;fill-opacity:1;fill-rule:evenodd;stroke:#000000;stroke-width:1px;stroke-linecap:butt;stroke-linejoin:miter;stroke-opacity:1"
               d="m -919.30674,262.16253 10.73531,-119.65337 0,-104.28571 22.85714,104.28571 -33.59245,119.65337 z"
               id="path6382"
               transform="translate(-116.0704,196.9958)" />
            <path
               inkscape:connector-curvature="0"
               sodipodi:nodetypes="ccccc"
               style="fill:#ccb700;fill-opacity:1;fill-rule:evenodd;stroke:#000000;stroke-width:1px;stroke-linecap:butt;stroke-linejoin:miter;stroke-opacity:1"
               d="m -1033.7035,459.66849 24.8477,-117.80638 -2.8571,-85.71428 12.85714,99.28571 -34.84774,104.23495 z"
               id="path6384" />
            <path
               inkscape:connector-curvature="0"
               sodipodi:nodetypes="ccccc"
               style="fill:#ccb700;fill-opacity:1;fill-rule:evenodd;stroke:#000000;stroke-width:1px;stroke-linecap:butt;stroke-linejoin:miter;stroke-opacity:1"
               d="m -1033.0399,461.35196 35.09278,-78.27557 -2.14288,-107.14285 -5.7143,98.57143 -27.2356,86.84699 z"
               id="path6386" />
          </g>
          <path
             transform="translate(-107.5193,153.5672)"
             d="m -879.99999,342.50916 c 0,31.55912 -24.30454,57.14285 -54.28572,57.14285 -29.98117,0 -54.28571,-25.58373 -54.28571,-57.14285 0,-31.55913 24.30454,-57.14286 54.28571,-57.14286 29.98118,0 54.28572,25.58373 54.28572,57.14286 z"
             sodipodi:ry="57.142857"
             sodipodi:rx="54.285713"
             sodipodi:cy="342.50916"
             sodipodi:cx="-934.28571"
             id="path4581"
             style="fill:#ccb700;fill-opacity:1;stroke:#000000;stroke-width:4;stroke-miterlimit:4;stroke-opacity:1;stroke-dasharray:none;stroke-dashoffset:0"
             sodipodi:type="arc" />
          <path
             transform="matrix(1.011992,0,0,0.597031,-95.30548,287.0988)"
             d="m -897.14285,259.65201 c 0,6.31182 -16.62942,11.42857 -37.14286,11.42857 -20.51343,0 -37.14285,-5.11675 -37.14285,-11.42857 0,-6.31183 16.62942,-11.42857 37.14285,-11.42857 20.51344,0 37.14286,5.11674 37.14286,11.42857 z"
             sodipodi:ry="11.428572"
             sodipodi:rx="37.142857"
             sodipodi:cy="259.65201"
             sodipodi:cx="-934.28571"
             id="path4583"
             style="fill:#ccb700;fill-opacity:1;stroke:#000000;stroke-width:4;stroke-miterlimit:4;stroke-opacity:1;stroke-dasharray:none;stroke-dashoffset:0"
             sodipodi:type="arc" />
        </g>
        <path
           inkscape:connector-curvature="0"
           style="fill:none;stroke:#f00000;stroke-width:5.68411732;stroke-linecap:butt;stroke-linejoin:miter;stroke-miterlimit:4;stroke-opacity:1;stroke-dasharray:none"
           d="m -510.25928,344.22055 -10.28033,-11.9546 11.79556,-11.76229"
           id="path7331"
           sodipodi:nodetypes="ccc" />
        <path
           inkscape:connector-curvature="0"
           style="fill:none;stroke:#f00000;stroke-width:5.68411732;stroke-linecap:butt;stroke-linejoin:miter;stroke-miterlimit:4;stroke-opacity:1;stroke-dasharray:none"
           d="m -522.94801,344.22055 -10.28033,-11.9546 11.79556,-11.76229"
           id="path8218"
           sodipodi:nodetypes="ccc" />
      </g>
      <g
         id="g4668"
         transform="translate(8.785195,-0.862201)">
        <path
           inkscape:connector-curvature="0"
           style="fill:#c80000;fill-opacity:1;fill-rule:evenodd;stroke:#000000;stroke-width:1px;stroke-linecap:butt;stroke-linejoin:miter;stroke-opacity:1"
           d="m 250.24073,418.10202 -20.98994,1.35563 -62.44679,80.62874 60.19291,73.48537 20.20896,1.41659 -59.17824,-74.78156 62.2131,-82.10477 z"
           id="path10161"
           sodipodi:nodetypes="ccccccc" />
        <path
           inkscape:connector-curvature="0"
           style="fill:#c80000;fill-opacity:1;fill-rule:evenodd;stroke:#000000;stroke-width:1px;stroke-linecap:butt;stroke-linejoin:miter;stroke-opacity:1"
           d="m 224.31465,419.26011 -22.96692,1.35563 -59.45966,79.5536 59.46967,72.60149 c 18.07594,0.40968 13.65172,0.44056 21.24603,0.85024 l -60.12341,-73.33133 61.83429,-81.02963 z"
           id="path10165"
           sodipodi:nodetypes="ccccccc" />
        <path
           inkscape:connector-curvature="0"
           style="fill:#c80000;fill-opacity:1;fill-rule:evenodd;stroke:#000000;stroke-width:1px;stroke-linecap:butt;stroke-linejoin:miter;stroke-opacity:1"
           d="m 199.1266,421.47897 c 1.07963,-1.42236 -4.14975,0.30979 -6.4554,0.58007 l -60.66107,77.99876 60.32944,70.41531 4.97899,0.2189 -59.56821,-70.61841 61.37625,-78.59463 z"
           id="path10169"
           sodipodi:nodetypes="ccccccc" />
      </g>
    </g>
  </g>
</svg>
