<?xml version="1.0" encoding="UTF-8" standalone="no"?>
<!-- Created with Inkscape (http://www.inkscape.org/) -->

<svg
   xmlns:dc="http://purl.org/dc/elements/1.1/"
   xmlns:cc="http://creativecommons.org/ns#"
   xmlns:rdf="http://www.w3.org/1999/02/22-rdf-syntax-ns#"
   xmlns:svg="http://www.w3.org/2000/svg"
   xmlns="http://www.w3.org/2000/svg"
   xmlns:sodipodi="http://sodipodi.sourceforge.net/DTD/sodipodi-0.dtd"
   xmlns:inkscape="http://www.inkscape.org/namespaces/inkscape"
   width="159.1875"
   height="390.06128"
   id="svg2"
   sodipodi:version="0.32"
   inkscape:version="0.48.2 r9819"
   sodipodi:docname="Army-FRA-OR-04b (alt).svg"
   version="1.0">
  <defs
     id="defs4" />
  <sodipodi:namedview
     id="base"
     pagecolor="#ffffff"
     bordercolor="#666666"
     borderopacity="1.0"
     inkscape:pageopacity="0.0"
     inkscape:pageshadow="2"
     inkscape:zoom="0.7"
     inkscape:cx="-191.96473"
     inkscape:cy="-37.436137"
     inkscape:document-units="px"
     inkscape:current-layer="layer1"
     showgrid="true"
     inkscape:window-width="1270"
     inkscape:window-height="945"
     inkscape:window-x="0"
     inkscape:window-y="25"
     fit-margin-top="0"
     fit-margin-left="0"
     fit-margin-right="0"
     fit-margin-bottom="0"
     inkscape:window-maximized="0" />
  <metadata
     id="metadata7">
    <rdf:RDF>
      <cc:Work
         rdf:about="">
        <dc:format>image/svg+xml</dc:format>
        <dc:type
           rdf:resource="http://purl.org/dc/dcmitype/StillImage" />
        <dc:title></dc:title>
      </cc:Work>
    </rdf:RDF>
  </metadata>
  <g
     inkscape:label="Calque 1"
     inkscape:groupmode="layer"
     id="layer1"
     transform="translate(-318.93787,21.496321)">
    <g
       id="g4622"
       transform="translate(-19.28571,126.4286)" />
    <g
       transform="matrix(0,1,-1,0,894.52792,93.977694)"
       id="g10159">
      <g
         id="g11965">
        <path
           inkscape:connector-curvature="0"
           id="path1905"
           d="m 7.69415,233.6632 c 0.02064,-6.8e-4 0.04186,6.8e-4 0.0625,0 -0.03277,-1.55354 -0.0625,-1.9375 -0.0625,-1.9375 l 0,1.9375 z"
           style="fill:#151f3c;fill-opacity:1;fill-rule:evenodd;stroke:none"
           transform="translate(0.596355,201.5206)" />
        <path
           inkscape:connector-curvature="0"
           sodipodi:nodetypes="cccccc"
           id="path2852"
           d="m -31.91602,351.16735 -84.15435,-56.05245 90.56783,-56.65493 c 100.21618,0.0658 155.09312,-10.17222 299.13723,-18.93824 l 0.35623,150.36022 C 129.79679,361.56208 78.0218,351.63675 -31.91602,351.16735 z"
           style="fill:#526738;fill-opacity:1;fill-rule:evenodd;stroke:none"
           transform="translate(0.596355,201.5206)" />
        <path
           inkscape:connector-curvature="0"
           sodipodi:nodetypes="ccccc"
           id="path2760"
           d="m -13.11934,230.12767 c 0.11945,5.22516 -0.22538,35.62807 -0.61508,129.79997 l 277.49107,14.14181 -0.37252,-159.1875 -276.50347,15.24572 z"
           style="fill:#20240b;fill-opacity:1;fill-rule:evenodd;stroke:none"
           transform="translate(0.596355,201.5206)" />
        <path
           transform="matrix(0,-1.005178,0.697384,0,-327.3316,804.952)"
           d="m 322.85714,368.07648 c 0,11.83467 -7.03553,21.42857 -15.71429,21.42857 -8.67876,0 -15.71428,-9.5939 -15.71428,-21.42857 0,-11.83468 7.03552,-21.42857 15.71428,-21.42857 8.67876,0 15.71429,9.59389 15.71429,21.42857 z"
           sodipodi:ry="21.428572"
           sodipodi:rx="15.714286"
           sodipodi:cy="368.07648"
           sodipodi:cx="307.14285"
           id="path2762"
           style="fill:#cdb900;fill-opacity:1;fill-rule:evenodd;stroke:#000000;stroke-width:1px;stroke-linecap:butt;stroke-linejoin:miter;stroke-opacity:1"
           sodipodi:type="arc" />
        <g
           transform="matrix(0.691372,0,0,0.901159,372.5136,195.2281)"
           id="g9109">
          <path
             inkscape:connector-curvature="0"
             style="fill:#ccb700;fill-opacity:1;fill-rule:evenodd;stroke:#000000;stroke-width:0.58092988px;stroke-linecap:butt;stroke-linejoin:miter;stroke-opacity:1"
             d="m -407.70393,374.00022 13.98593,-7.09125 -12.23769,-10.24291 c -17.81049,-2.74177 -13.32823,-3.92972 -21.85301,-10.24292 l -43.70602,-45.69915 -2.62235,2.36376 66.43314,70.91247 z"
             id="path8220"
             sodipodi:nodetypes="ccccccc" />
          <path
             inkscape:connector-curvature="0"
             style="fill:#ccb700;fill-opacity:1;fill-rule:evenodd;stroke:#000000;stroke-width:0.58092988px;stroke-linecap:butt;stroke-linejoin:miter;stroke-opacity:1"
             d="m -406.98965,294.29541 13.98593,7.09125 -15.09483,11.67148 c -18.52478,3.45606 -9.75681,1.07258 -18.99587,8.81435 l -43.70602,45.69915 -2.62235,-2.36376 66.43314,-70.91247 z"
             id="path9107"
             sodipodi:nodetypes="ccccccc" />
          <g
             transform="matrix(0,-0.289025,0.233427,0,-550.9031,33.62305)"
             id="g7275">
            <path
               inkscape:connector-curvature="0"
               style="fill:#ccb700;fill-opacity:1;fill-rule:evenodd;stroke:#000000;stroke-width:0.79555011px;stroke-linecap:butt;stroke-linejoin:miter;stroke-opacity:1"
               d="m -1042.2036,466.27216 c -15.4406,-58.29352 -18.5211,-29.30755 -18.0694,-97.21527 0.4518,-67.90771 6.5869,-54.35013 24.2045,-145.13203 14.0038,103.64862 17.8068,80.08358 17.3551,147.9913 -0.4517,67.90772 -17.1409,60.72561 -23.4902,94.356 z"
               id="path4585"
               sodipodi:nodetypes="cscsc" />
            <g
               id="g6367"
               transform="translate(-7.142857,1.428571)">
              <path
                 inkscape:connector-curvature="0"
                 transform="translate(-116.0704,196.9958)"
                 id="path5472"
                 d="m -919.30674,262.16253 10.73531,-119.65337 7.85714,-102.857138 15,102.857138 -33.59245,119.65337 z"
                 style="fill:#ccb700;fill-opacity:1;fill-rule:evenodd;stroke:#000000;stroke-width:1px;stroke-linecap:butt;stroke-linejoin:miter;stroke-opacity:1"
                 sodipodi:nodetypes="ccccc" />
              <path
                 inkscape:connector-curvature="0"
                 id="path5474"
                 d="m -1033.7035,459.66849 24.8477,-117.80638 0.7143,-85 11.4286,97.85714 -36.9906,104.94924 z"
                 style="fill:#ccb700;fill-opacity:1;fill-rule:evenodd;stroke:#000000;stroke-width:1px;stroke-linecap:butt;stroke-linejoin:miter;stroke-opacity:1"
                 sodipodi:nodetypes="ccccc" />
              <path
                 inkscape:connector-curvature="0"
                 id="path5476"
                 d="m -1033.0399,461.35196 35.80706,-76.847 0,-106.42857 -8.57146,96.42858 -27.2356,86.84699 z"
                 style="fill:#ccb700;fill-opacity:1;fill-rule:evenodd;stroke:#000000;stroke-width:1px;stroke-linecap:butt;stroke-linejoin:miter;stroke-opacity:1"
                 sodipodi:nodetypes="ccccc" />
            </g>
            <g
               id="g6380"
               transform="matrix(-1,0,0,1,-2073.654,1.210959)">
              <path
                 inkscape:connector-curvature="0"
                 transform="translate(-116.0704,196.9958)"
                 id="path6382"
                 d="m -919.30674,262.16253 10.73531,-119.65337 0,-104.28571 22.85714,104.28571 -33.59245,119.65337 z"
                 style="fill:#ccb700;fill-opacity:1;fill-rule:evenodd;stroke:#000000;stroke-width:1px;stroke-linecap:butt;stroke-linejoin:miter;stroke-opacity:1"
                 sodipodi:nodetypes="ccccc" />
              <path
                 inkscape:connector-curvature="0"
                 id="path6384"
                 d="m -1033.7035,459.66849 24.8477,-117.80638 -2.8571,-85.71428 12.85714,99.28571 -34.84774,104.23495 z"
                 style="fill:#ccb700;fill-opacity:1;fill-rule:evenodd;stroke:#000000;stroke-width:1px;stroke-linecap:butt;stroke-linejoin:miter;stroke-opacity:1"
                 sodipodi:nodetypes="ccccc" />
              <path
                 inkscape:connector-curvature="0"
                 id="path6386"
                 d="m -1033.0399,461.35196 35.09278,-78.27557 -2.14288,-107.14285 -5.7143,98.57143 -27.2356,86.84699 z"
                 style="fill:#ccb700;fill-opacity:1;fill-rule:evenodd;stroke:#000000;stroke-width:1px;stroke-linecap:butt;stroke-linejoin:miter;stroke-opacity:1"
                 sodipodi:nodetypes="ccccc" />
            </g>
            <path
               sodipodi:type="arc"
               style="fill:#ccb700;fill-opacity:1;stroke:#000000;stroke-width:4;stroke-miterlimit:4;stroke-opacity:1;stroke-dasharray:none;stroke-dashoffset:0"
               id="path4581"
               sodipodi:cx="-934.28571"
               sodipodi:cy="342.50916"
               sodipodi:rx="54.285713"
               sodipodi:ry="57.142857"
               d="m -879.99999,342.50916 c 0,31.55912 -24.30454,57.14285 -54.28572,57.14285 -29.98117,0 -54.28571,-25.58373 -54.28571,-57.14285 0,-31.55913 24.30454,-57.14286 54.28571,-57.14286 29.98118,0 54.28572,25.58373 54.28572,57.14286 z"
               transform="translate(-107.5193,153.5672)" />
            <path
               sodipodi:type="arc"
               style="fill:#ccb700;fill-opacity:1;stroke:#000000;stroke-width:4;stroke-miterlimit:4;stroke-opacity:1;stroke-dasharray:none;stroke-dashoffset:0"
               id="path4583"
               sodipodi:cx="-934.28571"
               sodipodi:cy="259.65201"
               sodipodi:rx="37.142857"
               sodipodi:ry="11.428572"
               d="m -897.14285,259.65201 c 0,6.31182 -16.62942,11.42857 -37.14286,11.42857 -20.51343,0 -37.14285,-5.11675 -37.14285,-11.42857 0,-6.31183 16.62942,-11.42857 37.14285,-11.42857 20.51344,0 37.14286,5.11674 37.14286,11.42857 z"
               transform="matrix(1.011992,0,0,0.597031,-95.30548,287.0988)" />
          </g>
          <path
             inkscape:connector-curvature="0"
             sodipodi:nodetypes="ccc"
             id="path7331"
             d="m -510.25928,344.22055 -10.28033,-11.9546 11.79556,-11.76229"
             style="fill:none;stroke:#f00000;stroke-width:5.68411732;stroke-linecap:butt;stroke-linejoin:miter;stroke-miterlimit:4;stroke-opacity:1;stroke-dasharray:none" />
          <path
             inkscape:connector-curvature="0"
             sodipodi:nodetypes="ccc"
             id="path8218"
             d="m -522.94801,344.22055 -10.28033,-11.9546 11.79556,-11.76229"
             style="fill:none;stroke:#f00000;stroke-width:5.68411732;stroke-linecap:butt;stroke-linejoin:miter;stroke-miterlimit:4;stroke-opacity:1;stroke-dasharray:none" />
        </g>
        <path
           inkscape:connector-curvature="0"
           style="fill:#f00000;fill-opacity:1;fill-rule:evenodd;stroke:#000000;stroke-width:1px;stroke-linecap:butt;stroke-linejoin:miter;stroke-opacity:1"
           d="m 236.03732,418.45916 -19.91851,0.99849 -62.44679,80.62874 59.83577,72.0568 21.28039,1.05945 -59.89253,-72.99585 61.14167,-81.74763 z"
           id="path10161"
           sodipodi:nodetypes="ccccccc" />
        <path
           inkscape:connector-curvature="0"
           style="fill:#ccb700;fill-opacity:1;fill-rule:evenodd;stroke:#000000;stroke-width:1px;stroke-linecap:butt;stroke-linejoin:miter;stroke-opacity:1"
           d="m 210.46838,420.68868 -22.25263,1.35563 -59.45966,78.12503 59.46967,70.45863 c 18.07594,0.40968 13.29458,0.44056 20.88889,0.85024 l -59.76627,-71.18847 61.12,-79.60106 z"
           id="path10165"
           sodipodi:nodetypes="ccccccc" />
        <path
           inkscape:connector-curvature="0"
           style="fill:#f00000;fill-opacity:1;fill-rule:evenodd;stroke:#000000;stroke-width:1px;stroke-linecap:butt;stroke-linejoin:miter;stroke-opacity:1"
           d="m 259.60616,417.23981 -19.77583,0.9858 -60.06935,82.05206 60.01436,73.4637 20.61995,1.29033 -60.75476,-75.24332 59.96563,-82.54857 z"
           id="path10167"
           sodipodi:nodetypes="ccccccc" />
        <path
           inkscape:connector-curvature="0"
           style="fill:#ccb700;fill-opacity:1;fill-rule:evenodd;stroke:#000000;stroke-width:1px;stroke-linecap:butt;stroke-linejoin:miter;stroke-opacity:1"
           d="m 185.99462,421.47897 -6.4554,0.58007 -60.66107,77.99876 60.32944,70.41531 4.97899,0.2189 -59.56821,-70.61841 61.37625,-78.59463 z"
           id="path10169"
           sodipodi:nodetypes="ccccccc" />
      </g>
    </g>
  </g>
</svg>
