<?xml version="1.0" encoding="UTF-8" standalone="no"?>
<!-- Created with Inkscape (http://www.inkscape.org/) -->

<svg
   xmlns:dc="http://purl.org/dc/elements/1.1/"
   xmlns:cc="http://creativecommons.org/ns#"
   xmlns:rdf="http://www.w3.org/1999/02/22-rdf-syntax-ns#"
   xmlns:svg="http://www.w3.org/2000/svg"
   xmlns="http://www.w3.org/2000/svg"
   version="1.0"
   width="463pt"
   height="649pt"
   viewBox="0 0 463 649"
   id="svg2">
  <defs
     id="defs26" />
  <metadata
     id="metadata4">
Created by potrace 1.8, written by Peter Selinger 2001-2007
<rdf:RDF>
  <cc:Work
     rdf:about="">
    <dc:format>image/svg+xml</dc:format>
    <dc:type
       rdf:resource="http://purl.org/dc/dcmitype/StillImage" />
    <dc:title></dc:title>
  </cc:Work>
</rdf:RDF>
</metadata>
  <path
     d="M 0,325.0001 0,649 l 231.4285,0 231.4285,0 0,-323.9999 0,-323.9999 -231.4285,0 L 0,1.0002 0,325.0001 z"
     id="path8"
     style="fill:#434947;stroke:none" />
  <path
     d="m 231.5,253.56998 -156.049999,102.525 0,24.75 156.049999,-102.525 156.05,102.525 0,-24.75 -156.05,-102.525 z"
     id="rect3068"
     style="fill:#fffeff;fill-opacity:1;stroke:none" />
  <path
     d="m 231.5,311.14243 -156.05,102.525 0,24.75 156.05,-102.525 156.05,102.525 0,-24.75 -156.05,-102.525 z"
     id="path3074"
     style="fill:#fffeff;fill-opacity:1;stroke:none" />
  <path
     d="m 231.5,172.26152 -156.049999,102.525 0,24.75 156.049999,-102.525 156.05,102.525 0,-24.75 -156.05,-102.525 z"
     id="path3076"
     style="fill:#fffeff;fill-opacity:1;stroke:none" />
  <path
     d="m 231.5,114.689 -156.049999,102.525 0,24.75 L 231.5,139.439 l 156.05,102.525 0,-24.75 L 231.5,114.689 z"
     id="path3078"
     style="fill:#fffeff;fill-opacity:1;stroke:none" />
</svg>
