<?xml version="1.0" encoding="UTF-8" standalone="no"?>
<!-- Created with Inkscape (http://www.inkscape.org/) -->
<svg
   xmlns:dc="http://purl.org/dc/elements/1.1/"
   xmlns:cc="http://web.resource.org/cc/"
   xmlns:rdf="http://www.w3.org/1999/02/22-rdf-syntax-ns#"
   xmlns:svg="http://www.w3.org/2000/svg"
   xmlns="http://www.w3.org/2000/svg"
   xmlns:sodipodi="http://sodipodi.sourceforge.net/DTD/sodipodi-0.dtd"
   xmlns:inkscape="http://www.inkscape.org/namespaces/inkscape"
   id="svg2"
   sodipodi:version="0.32"
   inkscape:version="0.45pre1"
   width="470"
   height="350"
   version="1.0"
   sodipodi:docbase="C:\Documents and Settings\Flanker\Desktop\Temporanei\Loghi"
   sodipodi:docname="TR-Army-OR4a.svg"
   inkscape:output_extension="org.inkscape.output.svg.inkscape"
   sodipodi:modified="true">
  <metadata
     id="metadata7">
    <rdf:RDF>
      <cc:Work
         rdf:about="">
        <dc:format>image/svg+xml</dc:format>
        <dc:type
           rdf:resource="http://purl.org/dc/dcmitype/StillImage" />
      </cc:Work>
    </rdf:RDF>
  </metadata>
  <defs
     id="defs5" />
  <sodipodi:namedview
     inkscape:window-height="1003"
     inkscape:window-width="1280"
     inkscape:pageshadow="2"
     inkscape:pageopacity="0.0"
     guidetolerance="10.0"
     gridtolerance="10.0"
     objecttolerance="10.0"
     borderopacity="1.0"
     bordercolor="#666666"
     pagecolor="#ffffff"
     id="base"
     inkscape:zoom="0.69589655"
     inkscape:cx="332.77465"
     inkscape:cy="195.06161"
     inkscape:window-x="-4"
     inkscape:window-y="-4"
     inkscape:current-layer="svg2"
     width="470px"
     height="350px" />
  <g
     id="g3258"
     transform="translate(9.75,10.984375)">
    <path
       id="rect3221"
       d="M 0,0 L 0,286 L 52.09375,286 L 52.09375,328.03125 L 398.40625,328.03125 L 398.40625,286 L 450.5,286 L 450.5,0 L 0,0 z "
       style="opacity:1;fill:#2a553a;fill-opacity:1;fill-rule:nonzero;stroke:none;stroke-width:40;stroke-linecap:round;stroke-linejoin:miter;stroke-miterlimit:4;stroke-dasharray:none;stroke-dashoffset:0;stroke-opacity:1" />
    <path
       style="fill:#d93a36;fill-opacity:1;fill-rule:evenodd;stroke:none;stroke-width:40;stroke-linecap:butt;stroke-linejoin:miter;stroke-miterlimit:4;stroke-dasharray:none;stroke-opacity:1"
       d="M 19.999999,69.168431 L 19.999999,115.26218 C 47.913059,131.32696 84.409939,152.45297 121.03125,173.66843 C 159.84835,196.15596 197.05201,217.7316 225.25,234.10593 C 253.44799,217.7316 290.65165,196.15596 329.46875,173.66843 C 366.09006,152.45297 402.58694,131.32696 430.5,115.26218 L 430.5,69.168431 C 424.94528,72.350141 418.81855,75.861521 412.09375,79.730931 C 383.95148,95.92381 346.66988,117.47396 309.4375,139.04343 C 278.79278,156.79654 250.6565,173.10881 225.25,187.85593 C 199.8435,173.10881 171.70722,156.79654 141.0625,139.04343 C 103.83012,117.47396 66.548519,95.92381 38.406249,79.730931 C 31.681449,75.861521 25.554719,72.350141 19.999999,69.168431 z "
       id="path3253" />
    <g
       transform="translate(-46.944416,391.84599)"
       id="g2217">
      <path
         sodipodi:type="arc"
         style="fill:#2a553a;fill-opacity:1;fill-rule:nonzero;stroke:none;stroke-width:30.79999924;stroke-linecap:round;stroke-linejoin:miter;stroke-miterlimit:7;stroke-dasharray:none;stroke-dashoffset:0;stroke-opacity:1"
         id="path2184"
         sodipodi:cx="55.684658"
         sodipodi:cy="50.467884"
         sodipodi:rx="12.904698"
         sodipodi:ry="12.904698"
         d="M 68.589356 50.467884 A 12.904698 12.904698 0 1 1  42.77996,50.467884 A 12.904698 12.904698 0 1 1  68.589356 50.467884 z"
         transform="matrix(7.4166794,0,0,7.4166794,-140.80084,-586.53646)" />
      <path
         style="fill:#d93a36;fill-opacity:1;fill-rule:nonzero;stroke:none;stroke-width:2.5999999;stroke-linecap:round;stroke-linejoin:miter;stroke-miterlimit:7;stroke-dasharray:none;stroke-dashoffset:0;stroke-opacity:1"
         d="M 239.62502,-282.64449 C 213.74412,-270.39918 195.78161,-244.26379 195.78161,-213.7477 C 195.78161,-171.56444 230.01114,-137.3349 272.19441,-137.3349 C 314.37769,-137.3349 348.60721,-171.56444 348.60722,-213.7477 C 348.60722,-244.09576 330.77258,-270.13339 305.12171,-282.46554 C 323.35173,-270.99261 335.54368,-250.42676 335.54368,-226.81125 C 335.54366,-190.75715 307.16687,-161.49351 272.19441,-161.49351 C 237.22195,-161.49355 208.84516,-190.75715 208.84516,-226.81125 C 208.84516,-250.57111 221.20935,-271.21519 239.62502,-282.64449 z "
         id="path3135" />
      <path
         sodipodi:type="star"
         style="fill:#d93a36;fill-opacity:1;fill-rule:nonzero;stroke:none;stroke-width:2.5999999;stroke-linecap:round;stroke-linejoin:miter;stroke-miterlimit:7;stroke-dasharray:none;stroke-dashoffset:0;stroke-opacity:1"
         id="path4132"
         sodipodi:sides="5"
         sodipodi:cx="58.511936"
         sodipodi:cy="14.713528"
         sodipodi:r1="9.0221529"
         sodipodi:r2="3.6990826"
         sodipodi:arg1="1.5707963"
         sodipodi:arg2="2.1991149"
         inkscape:flatsided="false"
         inkscape:rounded="0"
         inkscape:randomized="0"
         d="M 58.511936,23.735681 L 56.33767,17.706148 L 49.931359,17.501526 L 54.9939,13.570448 L 53.208848,7.4144528 L 58.511936,11.014445 L 63.815024,7.4144525 L 62.029973,13.570448 L 67.092514,17.501526 L 60.686202,17.706148 L 58.511936,23.735681 z "
         transform="matrix(4.5085663,0,0,4.5085663,8.3894709,-372.22677)" />
    </g>
    <rect
       y="287.78326"
       x="75.084"
       height="21.554928"
       width="300.332"
       id="rect2248"
       style="opacity:1;fill:#d93a36;fill-opacity:1;fill-rule:nonzero;stroke:none;stroke-width:40;stroke-linecap:round;stroke-linejoin:miter;stroke-miterlimit:4;stroke-dasharray:none;stroke-dashoffset:0;stroke-opacity:1" />
  </g>
</svg>
