<?xml version="1.0" encoding="UTF-8" standalone="no"?>
<!-- Created with Inkscape (http://www.inkscape.org/) -->
<svg
   xmlns:dc="http://purl.org/dc/elements/1.1/"
   xmlns:cc="http://web.resource.org/cc/"
   xmlns:rdf="http://www.w3.org/1999/02/22-rdf-syntax-ns#"
   xmlns:svg="http://www.w3.org/2000/svg"
   xmlns="http://www.w3.org/2000/svg"
   xmlns:sodipodi="http://sodipodi.sourceforge.net/DTD/sodipodi-0.dtd"
   xmlns:inkscape="http://www.inkscape.org/namespaces/inkscape"
   id="svg2"
   sodipodi:version="0.32"
   inkscape:version="0.45pre1"
   width="470"
   height="250"
   version="1.0"
   sodipodi:docbase="C:\Documents and Settings\Flanker\Desktop\Temporanei\Loghi"
   sodipodi:docname="TR-Army-OR7a.svg"
   inkscape:output_extension="org.inkscape.output.svg.inkscape"
   sodipodi:modified="true">
  <metadata
     id="metadata7">
    <rdf:RDF>
      <cc:Work
         rdf:about="">
        <dc:format>image/svg+xml</dc:format>
        <dc:type
           rdf:resource="http://purl.org/dc/dcmitype/StillImage" />
      </cc:Work>
    </rdf:RDF>
  </metadata>
  <defs
     id="defs5" />
  <sodipodi:namedview
     inkscape:window-height="1003"
     inkscape:window-width="1280"
     inkscape:pageshadow="2"
     inkscape:pageopacity="0.0"
     guidetolerance="10.0"
     gridtolerance="10.0"
     objecttolerance="10.0"
     borderopacity="1.0"
     bordercolor="#666666"
     pagecolor="#ffffff"
     id="base"
     inkscape:zoom="0.98414634"
     inkscape:cx="257.39792"
     inkscape:cy="192.23489"
     inkscape:window-x="116"
     inkscape:window-y="-1"
     inkscape:current-layer="svg2"
     width="470px"
     height="250px" />
  <g
     id="g4149"
     transform="translate(-0.21875,-124.08186)">
    <path
       sodipodi:nodetypes="ccccccc"
       id="path3174"
       d="M 9.96875,137.80061 L 9.96875,229.95686 L 235.21875,360.36311 L 460.46875,229.95686 L 460.46875,137.80061 C 460.46875,137.80061 235.21875,267.89436 235.21875,267.89436 L 9.96875,137.80061 z "
       style="fill:#2a553a;fill-opacity:1;fill-rule:evenodd;stroke:none;stroke-width:40;stroke-linecap:butt;stroke-linejoin:miter;stroke-miterlimit:4;stroke-dasharray:none;stroke-opacity:1" />
    <path
       id="path2183"
       d="M 29.96875,171.29255 L 29.96875,217.3863 C 57.881809,233.45108 94.378693,254.57709 131,275.79255 C 169.8171,298.28008 207.02076,319.85572 235.21875,336.23005 C 263.41674,319.85572 300.6204,298.28008 339.4375,275.79255 C 376.05881,254.57709 412.55569,233.45108 440.46875,217.3863 L 440.46875,171.29255 C 434.91403,174.47426 428.7873,177.98564 422.0625,181.85505 C 393.92023,198.04793 356.63863,219.59808 319.40625,241.16755 C 288.76153,258.92066 260.62525,275.23293 235.21875,289.98005 C 209.81225,275.23293 181.67597,258.92066 151.03125,241.16755 C 113.79887,219.59808 76.517267,198.04793 48.375,181.85505 C 41.650198,177.98564 35.523474,174.47426 29.96875,171.29255 z "
       style="fill:#d93a36;fill-opacity:1;fill-rule:evenodd;stroke:none;stroke-width:40;stroke-linecap:butt;stroke-linejoin:miter;stroke-miterlimit:4;stroke-dasharray:none;stroke-opacity:1" />
  </g>
</svg>
