<?xml version="1.0" encoding="UTF-8" standalone="no"?>
<!-- Created with Inkscape (http://www.inkscape.org/) -->
<svg
   xmlns:dc="http://purl.org/dc/elements/1.1/"
   xmlns:cc="http://web.resource.org/cc/"
   xmlns:rdf="http://www.w3.org/1999/02/22-rdf-syntax-ns#"
   xmlns:svg="http://www.w3.org/2000/svg"
   xmlns="http://www.w3.org/2000/svg"
   xmlns:sodipodi="http://sodipodi.sourceforge.net/DTD/sodipodi-0.dtd"
   xmlns:inkscape="http://www.inkscape.org/namespaces/inkscape"
   id="svg2"
   sodipodi:version="0.32"
   inkscape:version="0.45pre1"
   width="470"
   height="320"
   version="1.0"
   sodipodi:docbase="C:\Documents and Settings\Flanker\Desktop"
   sodipodi:docname="TR-Army-OR6a.svg"
   inkscape:output_extension="org.inkscape.output.svg.inkscape"
   sodipodi:modified="true">
  <metadata
     id="metadata7">
    <rdf:RDF>
      <cc:Work
         rdf:about="">
        <dc:format>image/svg+xml</dc:format>
        <dc:type
           rdf:resource="http://purl.org/dc/dcmitype/StillImage" />
      </cc:Work>
    </rdf:RDF>
  </metadata>
  <defs
     id="defs5" />
  <sodipodi:namedview
     inkscape:window-height="1003"
     inkscape:window-width="1280"
     inkscape:pageshadow="2"
     inkscape:pageopacity="0.0"
     guidetolerance="10.0"
     gridtolerance="10.0"
     objecttolerance="10.0"
     borderopacity="1.0"
     bordercolor="#666666"
     pagecolor="#ffffff"
     id="base"
     inkscape:zoom="2.521875"
     inkscape:cx="235"
     inkscape:cy="160"
     inkscape:window-x="-4"
     inkscape:window-y="-4"
     inkscape:current-layer="svg2"
     width="470px"
     height="320px" />
  <path
     style="fill:#2a5539;fill-opacity:1;fill-rule:nonzero;stroke:none;stroke-width:30.79999924;stroke-linecap:round;stroke-linejoin:miter;stroke-miterlimit:7;stroke-dasharray:none;stroke-dashoffset:0;stroke-opacity:1"
     d="M 144.03906,258.89844 C 160.16717,292.66686 195.18967,315.78125 234.9375,315.78125 C 274.68535,315.78126 309.7115,292.73839 325.85938,258.96875 C 349.33141,209.88231 392.8497,171.84642 446.09375,156.96875 L 457.34375,153.84375 L 457.34375,3.71875 L 439.3125,6.84375 C 363.12003,20.090553 295.64236,59.018534 246.09375,114.28125 C 242.43979,113.86894 238.72325,113.625 234.9375,113.625 C 231.17335,113.625 227.48433,113.87077 223.875,114.28125 C 174.32766,59.02673 106.87287,20.089318 30.6875,6.84375 L 12.65625,3.71875 L 12.65625,153.84375 L 23.90625,156.96875 C 77.14752,171.84564 120.58539,209.79201 144.03906,258.89844 z "
     id="path10077"
     sodipodi:nodetypes="csscccccscccccs" />
  <g
     id="g9027"
     transform="matrix(4,0,0,4,-10.125,-11.106826)">
    <path
       sodipodi:nodetypes="ccccc"
       id="path5107"
       d="M 113,30.375 C 94.356341,34.884617 79.15081,48.298162 72.15625,65.84375 L 80.53125,65.84375 C 86.784552,52.523607 98.593705,42.337965 113,38.3125 L 113,30.375 z "
       style="opacity:1;fill:#f4dc11;fill-opacity:1;fill-rule:nonzero;stroke:none;stroke-width:7.69999981;stroke-linecap:round;stroke-linejoin:miter;stroke-miterlimit:7;stroke-dasharray:none;stroke-dashoffset:0;stroke-opacity:1" />
    <path
       sodipodi:nodetypes="ccccc"
       id="path9003"
       d="M 113,19.375 C 91.962871,23.63031 74.348938,37.414734 64.84375,56 L 73.5625,56 C 82.082905,41.655022 96.249607,31.066039 113,27.25 L 113,19.375 z "
       style="opacity:1;fill:#f4dc11;fill-opacity:1;fill-rule:nonzero;stroke:none;stroke-width:6.43984318;stroke-linecap:round;stroke-linejoin:miter;stroke-miterlimit:7;stroke-dasharray:none;stroke-dashoffset:0;stroke-opacity:1" />
    <path
       sodipodi:nodetypes="ccccc"
       id="path9015"
       d="M 113,8.28125 C 89.582865,12.352547 69.598836,26.582823 57.78125,46.25 L 66.90625,46.25 C 77.534392,30.862032 93.942522,19.786553 113,16.125 L 113,8.28125 z "
       style="opacity:1;fill:#f4dc11;fill-opacity:1;fill-rule:nonzero;stroke:none;stroke-width:5.52623987;stroke-linecap:round;stroke-linejoin:miter;stroke-miterlimit:7;stroke-dasharray:none;stroke-dashoffset:0;stroke-opacity:1" />
  </g>
  <g
     id="g9032"
     transform="matrix(-4,0,0,4,480.0625,-11.106826)">
    <path
       style="opacity:1;fill:#f4dc11;fill-opacity:1;fill-rule:nonzero;stroke:none;stroke-width:7.69999981;stroke-linecap:round;stroke-linejoin:miter;stroke-miterlimit:7;stroke-dasharray:none;stroke-dashoffset:0;stroke-opacity:1"
       d="M 113,30.375 C 94.356341,34.884617 79.15081,48.298162 72.15625,65.84375 L 80.53125,65.84375 C 86.784552,52.523607 98.593705,42.337965 113,38.3125 L 113,30.375 z "
       id="path9034"
       sodipodi:nodetypes="ccccc" />
    <path
       style="opacity:1;fill:#f4dc11;fill-opacity:1;fill-rule:nonzero;stroke:none;stroke-width:6.43984318;stroke-linecap:round;stroke-linejoin:miter;stroke-miterlimit:7;stroke-dasharray:none;stroke-dashoffset:0;stroke-opacity:1"
       d="M 113,19.375 C 91.962871,23.63031 74.348938,37.414734 64.84375,56 L 73.5625,56 C 82.082905,41.655022 96.249607,31.066039 113,27.25 L 113,19.375 z "
       id="path9036"
       sodipodi:nodetypes="ccccc" />
    <path
       style="opacity:1;fill:#f4dc11;fill-opacity:1;fill-rule:nonzero;stroke:none;stroke-width:5.52623987;stroke-linecap:round;stroke-linejoin:miter;stroke-miterlimit:7;stroke-dasharray:none;stroke-dashoffset:0;stroke-opacity:1"
       d="M 113,8.28125 C 89.582865,12.352547 69.598836,26.582823 57.78125,46.25 L 66.90625,46.25 C 77.534392,30.862032 93.942522,19.786553 113,16.125 L 113,8.28125 z "
       id="path9038"
       sodipodi:nodetypes="ccccc" />
  </g>
  <path
     sodipodi:type="arc"
     style="fill:#2a5539;fill-opacity:1;fill-rule:nonzero;stroke:#f4dc11;stroke-width:2.37160301;stroke-linecap:round;stroke-linejoin:miter;stroke-miterlimit:7;stroke-dasharray:none;stroke-dashoffset:0;stroke-opacity:1"
     id="path2163"
     sodipodi:cx="56.915119"
     sodipodi:cy="55.546417"
     sodipodi:rx="18.363396"
     sodipodi:ry="18.363396"
     d="M 75.278515 55.546417 A 18.363396 18.363396 0 1 1  38.551723,55.546417 A 18.363396 18.363396 0 1 1  75.278515 55.546417 z"
     transform="matrix(4.3852196,0,0,4.3852196,-14.65043,-28.854509)" />
  <path
     style="fill:#f4dc11;fill-opacity:1;fill-rule:nonzero;stroke:none;stroke-width:2.5999999;stroke-linecap:round;stroke-linejoin:miter;stroke-miterlimit:7;stroke-dasharray:none;stroke-dashoffset:0;stroke-opacity:1"
     d="M 212.18487,183.89317 C 194.10684,192.44663 181.55987,210.70243 181.55987,232.01817 C 181.55987,261.48355 205.46949,285.39318 234.93487,285.39317 C 264.40025,285.39317 288.30986,261.48355 288.30987,232.01817 C 288.30987,210.81981 275.85222,192.63228 257.93487,184.01817 C 270.6687,192.03212 279.18487,206.39755 279.18487,222.89317 C 279.18486,248.07727 259.36343,268.51817 234.93487,268.51817 C 210.5063,268.51816 190.68487,248.07726 190.68487,222.89317 C 190.68487,206.29672 199.32136,191.87666 212.18487,183.89317 z "
     id="path3135" />
  <path
     sodipodi:type="star"
     style="fill:#f4dc11;fill-opacity:1;fill-rule:nonzero;stroke:none;stroke-width:2.5999999;stroke-linecap:round;stroke-linejoin:miter;stroke-miterlimit:7;stroke-dasharray:none;stroke-dashoffset:0;stroke-opacity:1"
     id="path4132"
     sodipodi:sides="5"
     sodipodi:cx="58.511936"
     sodipodi:cy="14.713528"
     sodipodi:r1="9.0221529"
     sodipodi:r2="3.6990826"
     sodipodi:arg1="1.5707963"
     sodipodi:arg2="2.1991149"
     inkscape:flatsided="false"
     inkscape:rounded="0"
     inkscape:randomized="0"
     d="M 58.511936,23.735681 L 56.33767,17.706148 L 49.931359,17.501526 L 54.9939,13.570448 L 53.208848,7.4144528 L 58.511936,11.014445 L 63.815024,7.4144525 L 62.029973,13.570448 L 67.092514,17.501526 L 60.686202,17.706148 L 58.511936,23.735681 z "
     transform="matrix(3.1492724,0,0,3.1492724,50.66484,121.31919)" />
</svg>
