<?xml version="1.0" encoding="UTF-8" standalone="no"?>
<!-- Created with Inkscape (http://www.inkscape.org/) -->
<svg
   xmlns:dc="http://purl.org/dc/elements/1.1/"
   xmlns:cc="http://web.resource.org/cc/"
   xmlns:rdf="http://www.w3.org/1999/02/22-rdf-syntax-ns#"
   xmlns:svg="http://www.w3.org/2000/svg"
   xmlns="http://www.w3.org/2000/svg"
   xmlns:sodipodi="http://sodipodi.sourceforge.net/DTD/sodipodi-0.dtd"
   xmlns:inkscape="http://www.inkscape.org/namespaces/inkscape"
   id="svg2"
   sodipodi:version="0.32"
   inkscape:version="0.45pre1"
   width="470"
   height="350"
   version="1.0"
   sodipodi:docbase="C:\Documents and Settings\Flanker\Desktop\Temporanei\Loghi"
   sodipodi:docname="TR-Army-OR5a.svg"
   inkscape:output_extension="org.inkscape.output.svg.inkscape"
   sodipodi:modified="true">
  <metadata
     id="metadata7">
    <rdf:RDF>
      <cc:Work
         rdf:about="">
        <dc:format>image/svg+xml</dc:format>
        <dc:type
           rdf:resource="http://purl.org/dc/dcmitype/StillImage" />
      </cc:Work>
    </rdf:RDF>
  </metadata>
  <defs
     id="defs5" />
  <sodipodi:namedview
     inkscape:window-height="1003"
     inkscape:window-width="1280"
     inkscape:pageshadow="2"
     inkscape:pageopacity="0.0"
     guidetolerance="10.0"
     gridtolerance="10.0"
     objecttolerance="10.0"
     borderopacity="1.0"
     bordercolor="#666666"
     pagecolor="#ffffff"
     id="base"
     inkscape:zoom="0.69589655"
     inkscape:cx="332.77465"
     inkscape:cy="195.06161"
     inkscape:window-x="0"
     inkscape:window-y="0"
     inkscape:current-layer="svg2"
     width="470px"
     height="350px" />
  <g
     id="g2163"
     transform="translate(0,4.515625)">
    <path
       id="rect3221"
       d="M 9.75,6.46875 L 9.75,292.46875 L 61.84375,292.46875 L 61.84375,334.5 L 408.15625,334.5 L 408.15625,292.46875 L 460.25,292.46875 L 460.25,6.46875 L 9.75,6.46875 z "
       style="opacity:1;fill:#2a553a;fill-opacity:1;fill-rule:nonzero;stroke:none;stroke-width:40;stroke-linecap:round;stroke-linejoin:miter;stroke-miterlimit:4;stroke-dasharray:none;stroke-dashoffset:0;stroke-opacity:1" />
    <path
       id="path2183"
       d="M 29.75,40.96875 L 29.75,87.0625 C 57.663059,103.12728 94.159943,124.25329 130.78125,145.46875 C 169.59835,167.95628 206.80201,189.53192 235,205.90625 C 263.19799,189.53192 300.40165,167.95628 339.21875,145.46875 C 375.84006,124.25329 412.33694,103.12728 440.25,87.0625 L 440.25,40.96875 C 434.69528,44.15046 428.56855,47.66184 421.84375,51.53125 C 393.70148,67.72413 356.41988,89.27428 319.1875,110.84375 C 288.54278,128.59686 260.4065,144.90913 235,159.65625 C 209.5935,144.90913 181.45722,128.59686 150.8125,110.84375 C 113.58012,89.274277 76.298517,67.72413 48.15625,51.53125 C 41.431448,47.66184 35.304724,44.15046 29.75,40.96875 z M 29.75,105.46875 L 29.75,151.5625 C 57.663059,167.62728 94.159943,188.75329 130.78125,209.96875 C 169.59835,232.45628 206.80201,254.03192 235,270.40625 C 263.19799,254.03192 300.40165,232.45628 339.21875,209.96875 C 375.84006,188.75329 412.33694,167.62728 440.25,151.5625 L 440.25,105.46875 C 434.69528,108.65046 428.56855,112.16184 421.84375,116.03125 C 393.70148,132.22413 356.41988,153.77428 319.1875,175.34375 C 288.54278,193.09686 260.4065,209.40913 235,224.15625 C 209.5935,209.40913 181.45722,193.09686 150.8125,175.34375 C 113.58012,153.77428 76.298517,132.22413 48.15625,116.03125 C 41.431448,112.16184 35.304724,108.65046 29.75,105.46875 z "
       style="fill:#d93a36;fill-opacity:1;fill-rule:evenodd;stroke:none;stroke-width:40;stroke-linecap:butt;stroke-linejoin:miter;stroke-miterlimit:4;stroke-dasharray:none;stroke-opacity:1" />
    <g
       transform="translate(-37.194416,398.31474)"
       id="g2217">
      <path
         sodipodi:type="arc"
         style="fill:#2a553a;fill-opacity:1;fill-rule:nonzero;stroke:none;stroke-width:30.79999924;stroke-linecap:round;stroke-linejoin:miter;stroke-miterlimit:7;stroke-dasharray:none;stroke-dashoffset:0;stroke-opacity:1"
         id="path2184"
         sodipodi:cx="55.684658"
         sodipodi:cy="50.467884"
         sodipodi:rx="12.904698"
         sodipodi:ry="12.904698"
         d="M 68.589356 50.467884 A 12.904698 12.904698 0 1 1  42.77996,50.467884 A 12.904698 12.904698 0 1 1  68.589356 50.467884 z"
         transform="matrix(7.4166794,0,0,7.4166794,-140.80084,-586.53646)" />
      <path
         style="fill:#d93a36;fill-opacity:1;fill-rule:nonzero;stroke:none;stroke-width:2.5999999;stroke-linecap:round;stroke-linejoin:miter;stroke-miterlimit:7;stroke-dasharray:none;stroke-dashoffset:0;stroke-opacity:1"
         d="M 239.62502,-282.64449 C 213.74412,-270.39918 195.78161,-244.26379 195.78161,-213.7477 C 195.78161,-171.56444 230.01114,-137.3349 272.19441,-137.3349 C 314.37769,-137.3349 348.60721,-171.56444 348.60722,-213.7477 C 348.60722,-244.09576 330.77258,-270.13339 305.12171,-282.46554 C 323.35173,-270.99261 335.54368,-250.42676 335.54368,-226.81125 C 335.54366,-190.75715 307.16687,-161.49351 272.19441,-161.49351 C 237.22195,-161.49355 208.84516,-190.75715 208.84516,-226.81125 C 208.84516,-250.57111 221.20935,-271.21519 239.62502,-282.64449 z "
         id="path3135" />
      <path
         sodipodi:type="star"
         style="fill:#d93a36;fill-opacity:1;fill-rule:nonzero;stroke:none;stroke-width:2.5999999;stroke-linecap:round;stroke-linejoin:miter;stroke-miterlimit:7;stroke-dasharray:none;stroke-dashoffset:0;stroke-opacity:1"
         id="path4132"
         sodipodi:sides="5"
         sodipodi:cx="58.511936"
         sodipodi:cy="14.713528"
         sodipodi:r1="9.0221529"
         sodipodi:r2="3.6990826"
         sodipodi:arg1="1.5707963"
         sodipodi:arg2="2.1991149"
         inkscape:flatsided="false"
         inkscape:rounded="0"
         inkscape:randomized="0"
         d="M 58.511936,23.735681 L 56.33767,17.706148 L 49.931359,17.501526 L 54.9939,13.570448 L 53.208848,7.4144528 L 58.511936,11.014445 L 63.815024,7.4144525 L 62.029973,13.570448 L 67.092514,17.501526 L 60.686202,17.706148 L 58.511936,23.735681 z "
         transform="matrix(4.5085663,0,0,4.5085663,8.3894709,-372.22677)" />
    </g>
    <rect
       y="294.25201"
       x="84.834"
       height="21.554928"
       width="300.332"
       id="rect2248"
       style="opacity:1;fill:#d93a36;fill-opacity:1;fill-rule:nonzero;stroke:none;stroke-width:40;stroke-linecap:round;stroke-linejoin:miter;stroke-miterlimit:4;stroke-dasharray:none;stroke-dashoffset:0;stroke-opacity:1" />
  </g>
</svg>
