<?xml version="1.0" encoding="UTF-8" standalone="no"?>
<!-- Created with Inkscape (http://www.inkscape.org/) -->
<svg
   xmlns:dc="http://purl.org/dc/elements/1.1/"
   xmlns:cc="http://web.resource.org/cc/"
   xmlns:rdf="http://www.w3.org/1999/02/22-rdf-syntax-ns#"
   xmlns:svg="http://www.w3.org/2000/svg"
   xmlns="http://www.w3.org/2000/svg"
   xmlns:sodipodi="http://sodipodi.sourceforge.net/DTD/sodipodi-0.dtd"
   xmlns:inkscape="http://www.inkscape.org/namespaces/inkscape"
   id="svg2"
   sodipodi:version="0.32"
   inkscape:version="0.45pre1"
   width="470"
   height="300"
   version="1.0"
   sodipodi:docbase="C:\Documents and Settings\Flanker\Desktop"
   sodipodi:docname="TR-Army-OR5b.svg"
   inkscape:output_extension="org.inkscape.output.svg.inkscape"
   sodipodi:modified="true">
  <metadata
     id="metadata7">
    <rdf:RDF>
      <cc:Work
         rdf:about="">
        <dc:format>image/svg+xml</dc:format>
        <dc:type
           rdf:resource="http://purl.org/dc/dcmitype/StillImage" />
      </cc:Work>
    </rdf:RDF>
  </metadata>
  <defs
     id="defs5" />
  <sodipodi:namedview
     inkscape:window-height="1003"
     inkscape:window-width="1280"
     inkscape:pageshadow="2"
     inkscape:pageopacity="0.0"
     guidetolerance="10.0"
     gridtolerance="10.0"
     objecttolerance="10.0"
     borderopacity="1.0"
     bordercolor="#666666"
     pagecolor="#ffffff"
     id="base"
     inkscape:zoom="0.98414634"
     inkscape:cx="252.34428"
     inkscape:cy="114.02202"
     inkscape:window-x="116"
     inkscape:window-y="-1"
     inkscape:current-layer="svg2"
     width="470px"
     height="300px" />
  <g
     id="g5179"
     transform="translate(0,-6.25)">
    <path
       sodipodi:nodetypes="ccccccc"
       id="path4193"
       d="M 9.75,12.71875 L 9.75,169.375 L 235,299.78125 L 460.25,169.375 L 460.25,12.71875 C 460.25,12.71875 235,142.78125 235,142.78125 L 9.75,12.71875 z "
       style="fill:#2a553a;fill-opacity:1;fill-rule:evenodd;stroke:none;stroke-width:40;stroke-linecap:butt;stroke-linejoin:miter;stroke-miterlimit:4;stroke-dasharray:none;stroke-opacity:1" />
    <path
       id="path2183"
       d="M 29.75,47.21875 L 29.75,93.3125 C 57.663059,109.37728 94.159943,130.50329 130.78125,151.71875 C 169.59835,174.20628 206.80201,195.78192 235,212.15625 C 263.19799,195.78192 300.40165,174.20628 339.21875,151.71875 C 375.84006,130.50329 412.33694,109.37728 440.25,93.3125 L 440.25,47.21875 C 434.69528,50.40046 428.56855,53.91184 421.84375,57.78125 C 393.70148,73.97413 356.41988,95.52428 319.1875,117.09375 C 288.54278,134.84686 260.4065,151.15913 235,165.90625 C 209.5935,151.15913 181.45722,134.84686 150.8125,117.09375 C 113.58012,95.524277 76.298517,73.97413 48.15625,57.78125 C 41.431448,53.91184 35.304724,50.40046 29.75,47.21875 z M 29.75,111.71875 L 29.75,157.8125 C 57.663059,173.87728 94.159943,195.00329 130.78125,216.21875 C 169.59835,238.70628 206.80201,260.28192 235,276.65625 C 263.19799,260.28192 300.40165,238.70628 339.21875,216.21875 C 375.84006,195.00329 412.33694,173.87728 440.25,157.8125 L 440.25,111.71875 C 434.69528,114.90046 428.56855,118.41184 421.84375,122.28125 C 393.70148,138.47413 356.41988,160.02428 319.1875,181.59375 C 288.54278,199.34686 260.4065,215.65913 235,230.40625 C 209.5935,215.65913 181.45722,199.34686 150.8125,181.59375 C 113.58012,160.02428 76.298517,138.47413 48.15625,122.28125 C 41.431448,118.41184 35.304724,114.90046 29.75,111.71875 z "
       style="fill:#d93a36;fill-opacity:1;fill-rule:evenodd;stroke:none;stroke-width:40;stroke-linecap:butt;stroke-linejoin:miter;stroke-miterlimit:4;stroke-dasharray:none;stroke-opacity:1" />
  </g>
</svg>
