<?xml version="1.0" encoding="utf-8"?>
<!-- Generator: Adobe Illustrator 13.0.1, SVG Export Plug-In . SVG Version: 6.00 Build 14948)  -->
<!DOCTYPE svg PUBLIC "-//W3C//DTD SVG 1.1//EN" "http://www.w3.org/Graphics/SVG/1.1/DTD/svg11.dtd">
<svg version="1.1" id="Layer_1" xmlns="http://www.w3.org/2000/svg" xmlns:xlink="http://www.w3.org/1999/xlink" x="0px" y="0px"
	 width="95.954px" height="136.04px" viewBox="0 0 95.954 136.04" enable-background="new 0 0 95.954 136.04" xml:space="preserve">
<g>
	<path fill="#BF1E2D" d="M95.954,22.896C44.438-28.62,0,22.896,0,22.896v66.161l49.429,46.982l46.525-47.414V22.896z"/>
	<g>
		<g>
			<polygon fill="#FBB040" points="88.95,68.994 47.978,108.833 7.005,68.994 7.005,55.413 47.978,95.252 88.95,55.413 			"/>
		</g>
		<path fill="#FBB040" d="M89.112,38.817c-45.224-47.808-82.27,0-82.27,0v13.294c0,0,37.046-51.941,82.27,0V38.817z"/>
		<path fill="#FBB040" d="M89.112,23.904c-44.17-44.17-82.27,0-82.27,0v10.477c0,0,37.045-45.223,82.27,0V23.904z"/>
		<g>
			<polygon fill="#FBB040" points="88.95,86.555 47.978,126.394 7.005,86.555 7.005,72.974 47.978,112.813 88.95,72.974 			"/>
		</g>
	</g>
	<g>
		<g>
			<g>
				
					<linearGradient id="SVGID_1_" gradientUnits="userSpaceOnUse" x1="-857.7764" y1="156.3442" x2="-845.2788" y2="156.3442" gradientTransform="matrix(-0.9936 0.1125 0.1125 0.9936 -812.4409 -9.5106)">
					<stop  offset="0.0056" style="stop-color:#FBC926"/>
					<stop  offset="0.2528" style="stop-color:#FFFBCC"/>
					<stop  offset="0.2986" style="stop-color:#F7EAB8"/>
					<stop  offset="0.3896" style="stop-color:#E7CF8E"/>
					<stop  offset="0.5159" style="stop-color:#D1A954"/>
					<stop  offset="0.5955" style="stop-color:#C3922E"/>
					<stop  offset="0.8143" style="stop-color:#E2C675"/>
					<stop  offset="0.8708" style="stop-color:#EED688"/>
					<stop  offset="1" style="stop-color:#FFFBCC"/>
				</linearGradient>
				<path fill="url(#SVGID_1_)" stroke="#DAA450" stroke-width="0.5" d="M54.271,37.521c0,0,5.895,10.464,0.568,13.821
					c-5.324,3.352-6.15,5.73-6.051,10.315c0.1,4.587-6.777-10.65-1.452-14.003C52.66,44.301,54.271,37.521,54.271,37.521z"/>
				<path fill="none" stroke="#DAA450" stroke-width="0.5" d="M54.271,37.521c0,0,2.252,8.406-3.073,11.762
					c-5.326,3.353-3.161,8.378-3.062,12.964"/>
			</g>
			<g>
				
					<linearGradient id="SVGID_2_" gradientUnits="userSpaceOnUse" x1="-796.1362" y1="113.3521" x2="-783.6387" y2="113.3521" gradientTransform="matrix(0.4975 0.8675 -0.8675 0.4975 544.576 680.8633)">
					<stop  offset="0.0056" style="stop-color:#FBC926"/>
					<stop  offset="0.2528" style="stop-color:#FFFBCC"/>
					<stop  offset="0.2986" style="stop-color:#F7EAB8"/>
					<stop  offset="0.3896" style="stop-color:#E7CF8E"/>
					<stop  offset="0.5159" style="stop-color:#D1A954"/>
					<stop  offset="0.5955" style="stop-color:#C3922E"/>
					<stop  offset="0.8143" style="stop-color:#E2C675"/>
					<stop  offset="0.8708" style="stop-color:#EED688"/>
					<stop  offset="1" style="stop-color:#FFFBCC"/>
				</linearGradient>
				<path fill="url(#SVGID_2_)" stroke="#DAA450" stroke-width="0.5" d="M61.558,42.167c0,0-11.924,1.442-11.475,7.72
					c0.45,6.277-0.979,8.351-4.732,10.984c-3.756,2.636,12.596-0.842,12.146-7.118C57.048,47.478,61.558,42.167,61.558,42.167z"/>
				<path fill="none" stroke="#DAA450" stroke-width="0.5" d="M61.558,42.167c0,0-8.107,3.16-7.658,9.437s-4.883,7.507-8.637,10.142
					"/>
			</g>
			<g>
				
					<linearGradient id="SVGID_3_" gradientUnits="userSpaceOnUse" x1="-977.3975" y1="270.6235" x2="-964.8989" y2="270.6235" gradientTransform="matrix(0.1986 0.9801 -0.9801 0.1986 512.5023 951.4226)">
					<stop  offset="0.0056" style="stop-color:#FBC926"/>
					<stop  offset="0.2528" style="stop-color:#FFFBCC"/>
					<stop  offset="0.2986" style="stop-color:#F7EAB8"/>
					<stop  offset="0.3896" style="stop-color:#E7CF8E"/>
					<stop  offset="0.5159" style="stop-color:#D1A954"/>
					<stop  offset="0.5955" style="stop-color:#C3922E"/>
					<stop  offset="0.8143" style="stop-color:#E2C675"/>
					<stop  offset="0.8708" style="stop-color:#EED688"/>
					<stop  offset="1" style="stop-color:#FFFBCC"/>
				</linearGradient>
				<path fill="url(#SVGID_3_)" stroke="#DAA450" stroke-width="0.5" d="M65.364,46.599c0,0-11.771-2.389-13.322,3.709
					c-1.553,6.099-3.564,7.619-7.956,8.933c-4.394,1.316,12.22,3.172,13.771-2.926C59.409,50.217,65.364,46.599,65.364,46.599z"/>
				<path fill="none" stroke="#DAA450" stroke-width="0.5" d="M65.364,46.599c0,0-8.69,0.442-10.244,6.543
					c-1.552,6.098-7,5.583-11.393,6.9"/>
			</g>
			<g>
				
					<linearGradient id="SVGID_4_" gradientUnits="userSpaceOnUse" x1="-1168.1475" y1="822.2603" x2="-1155.6499" y2="822.2603" gradientTransform="matrix(-0.4183 0.9083 0.9083 0.4183 -1193.1626 764.0213)">
					<stop  offset="0.0056" style="stop-color:#FBC926"/>
					<stop  offset="0.2528" style="stop-color:#FFFBCC"/>
					<stop  offset="0.2986" style="stop-color:#F7EAB8"/>
					<stop  offset="0.3896" style="stop-color:#E7CF8E"/>
					<stop  offset="0.5159" style="stop-color:#D1A954"/>
					<stop  offset="0.5955" style="stop-color:#C3922E"/>
					<stop  offset="0.8143" style="stop-color:#E2C675"/>
					<stop  offset="0.8708" style="stop-color:#EED688"/>
					<stop  offset="1" style="stop-color:#FFFBCC"/>
				</linearGradient>
				<path fill="url(#SVGID_4_)" stroke="#DAA450" stroke-width="0.5" d="M30.589,43.534c0,0,12.006,0.376,12.117,6.67
					c0.111,6.291,1.721,8.23,5.693,10.52c3.975,2.289-12.621,0.283-12.733-6.01C35.556,48.423,30.589,43.534,30.589,43.534z"/>
				<path fill="none" stroke="#DAA450" stroke-width="0.5" d="M30.589,43.534c0,0,8.357,2.427,8.471,8.72
					c0.11,6.292,5.531,7.043,9.504,9.331"/>
			</g>
			<g>
				
					<linearGradient id="SVGID_5_" gradientUnits="userSpaceOnUse" x1="-998.582" y1="288.0903" x2="-986.0835" y2="288.0903" gradientTransform="matrix(-0.9318 0.3629 0.3629 0.9318 -981.1144 141.3858)">
					<stop  offset="0.0056" style="stop-color:#FBC926"/>
					<stop  offset="0.2528" style="stop-color:#FFFBCC"/>
					<stop  offset="0.2986" style="stop-color:#F7EAB8"/>
					<stop  offset="0.3896" style="stop-color:#E7CF8E"/>
					<stop  offset="0.5159" style="stop-color:#D1A954"/>
					<stop  offset="0.5955" style="stop-color:#C3922E"/>
					<stop  offset="0.8143" style="stop-color:#E2C675"/>
					<stop  offset="0.8708" style="stop-color:#EED688"/>
					<stop  offset="1" style="stop-color:#FFFBCC"/>
				</linearGradient>
				<path fill="url(#SVGID_5_)" stroke="#DAA450" stroke-width="0.5" d="M47.833,36.833c0,0,8.375,8.609,4.084,13.216
					c-4.291,4.602-4.479,7.114-3.211,11.521c1.27,4.409-9.276-8.563-4.987-13.167C48.009,43.801,47.833,36.833,47.833,36.833z"/>
				<path fill="none" stroke="#DAA450" stroke-width="0.5" d="M47.833,36.833c0,0,4.326,7.552,0.035,12.157
					c-4.29,4.603-0.912,8.909,0.357,13.315"/>
			</g>
			<g>
				
					<linearGradient id="SVGID_6_" gradientUnits="userSpaceOnUse" x1="-43.4507" y1="96.1978" x2="-30.9526" y2="96.1978" gradientTransform="matrix(1 0.0031 -0.0031 1 81.3432 -46.6447)">
					<stop  offset="0.0056" style="stop-color:#FBC926"/>
					<stop  offset="0.2528" style="stop-color:#FFFBCC"/>
					<stop  offset="0.2986" style="stop-color:#F7EAB8"/>
					<stop  offset="0.3896" style="stop-color:#E7CF8E"/>
					<stop  offset="0.5159" style="stop-color:#D1A954"/>
					<stop  offset="0.5955" style="stop-color:#C3922E"/>
					<stop  offset="0.8143" style="stop-color:#E2C675"/>
					<stop  offset="0.8708" style="stop-color:#EED688"/>
					<stop  offset="1" style="stop-color:#FFFBCC"/>
				</linearGradient>
				<path fill="url(#SVGID_6_)" stroke="#DAA450" stroke-width="0.5" d="M39.446,37.332c0,0-4.713,11.046,0.947,13.799
					c5.66,2.75,6.742,5.025,7.146,9.592c0.403,4.57,5.57-11.329-0.09-14.079C41.789,43.894,39.446,37.332,39.446,37.332z"/>
				<path fill="none" stroke="#DAA450" stroke-width="0.5" d="M39.446,37.332c0,0-1.317,8.601,4.343,11.353
					c5.661,2.75,4.059,7.982,4.463,12.551"/>
			</g>
			<g>
				
					<linearGradient id="SVGID_7_" gradientUnits="userSpaceOnUse" x1="-268.6675" y1="17.5269" x2="-256.1689" y2="17.5269" gradientTransform="matrix(0.948 0.3182 -0.3182 0.948 299.8935 116.0132)">
					<stop  offset="0.0056" style="stop-color:#FBC926"/>
					<stop  offset="0.2528" style="stop-color:#FFFBCC"/>
					<stop  offset="0.2986" style="stop-color:#F7EAB8"/>
					<stop  offset="0.3896" style="stop-color:#E7CF8E"/>
					<stop  offset="0.5159" style="stop-color:#D1A954"/>
					<stop  offset="0.5955" style="stop-color:#C3922E"/>
					<stop  offset="0.8143" style="stop-color:#E2C675"/>
					<stop  offset="0.8708" style="stop-color:#EED688"/>
					<stop  offset="1" style="stop-color:#FFFBCC"/>
				</linearGradient>
				<path fill="url(#SVGID_7_)" stroke="#DAA450" stroke-width="0.5" d="M45.188,36.251c0,0-7.956,8.998-3.451,13.394
					c4.504,4.394,4.813,6.895,3.755,11.357c-1.058,4.463,8.858-8.998,4.356-13.391C45.343,43.217,45.188,36.251,45.188,36.251z"/>
				<path fill="none" stroke="#DAA450" stroke-width="0.5" d="M45.188,36.251c0,0-3.963,7.748,0.543,12.143
					c4.504,4.396,1.333,8.856,0.276,13.317"/>
			</g>
		</g>
		<radialGradient id="SVGID_8_" cx="46.1953" cy="62.6841" r="3.2012" fx="45.8994" fy="62.7109" gradientUnits="userSpaceOnUse">
			<stop  offset="0" style="stop-color:#FFFBCC"/>
			<stop  offset="0.1336" style="stop-color:#F7EAB8"/>
			<stop  offset="0.3991" style="stop-color:#E7CF8E"/>
			<stop  offset="0.7678" style="stop-color:#D1A954"/>
			<stop  offset="1" style="stop-color:#C3922E"/>
		</radialGradient>
		<rect x="44.368" y="61.879" fill="url(#SVGID_8_)" stroke="#DAA450" stroke-width="0.3" width="5.439" height="2.949"/>
		
			<radialGradient id="SVGID_9_" cx="45.3354" cy="-238.9424" r="5.619" fx="44.8161" fy="-238.8952" gradientTransform="matrix(1 0 0 0.6913 0 225.5801)" gradientUnits="userSpaceOnUse">
			<stop  offset="0" style="stop-color:#FFFBCC"/>
			<stop  offset="0.1336" style="stop-color:#F7EAB8"/>
			<stop  offset="0.3991" style="stop-color:#E7CF8E"/>
			<stop  offset="0.7678" style="stop-color:#D1A954"/>
			<stop  offset="1" style="stop-color:#C3922E"/>
		</radialGradient>
		<rect x="41.749" y="59.874" fill="url(#SVGID_9_)" stroke="#DAA450" stroke-width="0.3" width="10.677" height="1.926"/>
		<radialGradient id="SVGID_10_" cx="44.4287" cy="69.022" r="12.157" fx="43.305" fy="69.1239" gradientUnits="userSpaceOnUse">
			<stop  offset="0" style="stop-color:#FFFBCC"/>
			<stop  offset="0.1336" style="stop-color:#F7EAB8"/>
			<stop  offset="0.3991" style="stop-color:#E7CF8E"/>
			<stop  offset="0.7678" style="stop-color:#D1A954"/>
			<stop  offset="1" style="stop-color:#C3922E"/>
		</radialGradient>
		<circle fill="url(#SVGID_10_)" stroke="#DAA450" stroke-width="0.3" cx="47.087" cy="72.699" r="8.101"/>
	</g>
</g>
</svg>
