<?xml version="1.0" encoding="utf-8"?>
<!-- Generator: Adobe Illustrator 13.0.1, SVG Export Plug-In . SVG Version: 6.00 Build 14948)  -->
<!DOCTYPE svg PUBLIC "-//W3C//DTD SVG 1.1//EN" "http://www.w3.org/Graphics/SVG/1.1/DTD/svg11.dtd">
<svg version="1.1" id="Layer_1" xmlns="http://www.w3.org/2000/svg" xmlns:xlink="http://www.w3.org/1999/xlink" x="0px" y="0px"
	 width="95.955px" height="113.145px" viewBox="0 0 95.955 113.145" enable-background="new 0 0 95.955 113.145"
	 xml:space="preserve">
<g>
	<polygon fill="#BF1E2D" points="95.955,0 0,0 0,66.161 49.43,113.145 95.955,65.729 	"/>
	<g>
		<g>
			<polygon fill="#FBB040" points="88.951,46.098 47.979,85.937 7.006,46.098 7.006,32.517 47.979,72.356 88.951,32.517 			"/>
		</g>
		<g>
			<polygon fill="#FBB040" points="88.951,63.66 47.979,103.498 7.006,63.66 7.006,50.078 47.979,89.918 88.951,50.078 			"/>
		</g>
	</g>
	<g>
		<g>
			<g>
				
					<linearGradient id="SVGID_1_" gradientUnits="userSpaceOnUse" x1="-970.8555" y1="139.8281" x2="-958.3574" y2="139.8281" gradientTransform="matrix(-0.9936 0.1125 0.1125 0.9936 -922.9371 -3.2751)">
					<stop  offset="0.0056" style="stop-color:#FBC926"/>
					<stop  offset="0.2528" style="stop-color:#FFFBCC"/>
					<stop  offset="0.2986" style="stop-color:#F7EAB8"/>
					<stop  offset="0.3896" style="stop-color:#E7CF8E"/>
					<stop  offset="0.5159" style="stop-color:#D1A954"/>
					<stop  offset="0.5955" style="stop-color:#C3922E"/>
					<stop  offset="0.8143" style="stop-color:#E2C675"/>
					<stop  offset="0.8708" style="stop-color:#EED688"/>
					<stop  offset="1" style="stop-color:#FFFBCC"/>
				</linearGradient>
				<path fill="url(#SVGID_1_)" stroke="#DAA450" stroke-width="0.5" d="M54.271,14.625c0,0,5.895,10.465,0.568,13.822
					c-5.324,3.352-6.15,5.73-6.051,10.314c0.1,4.588-6.777-10.65-1.453-14.003C52.66,21.405,54.271,14.625,54.271,14.625z"/>
				<path fill="none" stroke="#DAA450" stroke-width="0.5" d="M54.271,14.625c0,0,2.252,8.406-3.074,11.762
					c-5.326,3.354-3.16,8.379-3.061,12.964"/>
			</g>
			<g>
				
					<linearGradient id="SVGID_2_" gradientUnits="userSpaceOnUse" x1="-846.1826" y1="55.4165" x2="-833.6851" y2="55.4165" gradientTransform="matrix(0.4975 0.8675 -0.8675 0.4975 519.2158 730.2061)">
					<stop  offset="0.0056" style="stop-color:#FBC926"/>
					<stop  offset="0.2528" style="stop-color:#FFFBCC"/>
					<stop  offset="0.2986" style="stop-color:#F7EAB8"/>
					<stop  offset="0.3896" style="stop-color:#E7CF8E"/>
					<stop  offset="0.5159" style="stop-color:#D1A954"/>
					<stop  offset="0.5955" style="stop-color:#C3922E"/>
					<stop  offset="0.8143" style="stop-color:#E2C675"/>
					<stop  offset="0.8708" style="stop-color:#EED688"/>
					<stop  offset="1" style="stop-color:#FFFBCC"/>
				</linearGradient>
				<path fill="url(#SVGID_2_)" stroke="#DAA450" stroke-width="0.5" d="M61.559,19.271c0,0-11.924,1.442-11.475,7.721
					c0.449,6.277-0.979,8.352-4.732,10.984c-3.756,2.635,12.596-0.842,12.146-7.118S61.559,19.271,61.559,19.271z"/>
				<path fill="none" stroke="#DAA450" stroke-width="0.5" d="M61.559,19.271c0,0-8.107,3.16-7.658,9.438s-4.883,7.508-8.637,10.143
					"/>
			</g>
			<g>
				
					<linearGradient id="SVGID_3_" gradientUnits="userSpaceOnUse" x1="-1046.854" y1="214.1387" x2="-1034.356" y2="214.1387" gradientTransform="matrix(0.1986 0.9801 -0.9801 0.1986 470.9355 1007.8198)">
					<stop  offset="0.0056" style="stop-color:#FBC926"/>
					<stop  offset="0.2528" style="stop-color:#FFFBCC"/>
					<stop  offset="0.2986" style="stop-color:#F7EAB8"/>
					<stop  offset="0.3896" style="stop-color:#E7CF8E"/>
					<stop  offset="0.5159" style="stop-color:#D1A954"/>
					<stop  offset="0.5955" style="stop-color:#C3922E"/>
					<stop  offset="0.8143" style="stop-color:#E2C675"/>
					<stop  offset="0.8708" style="stop-color:#EED688"/>
					<stop  offset="1" style="stop-color:#FFFBCC"/>
				</linearGradient>
				<path fill="url(#SVGID_3_)" stroke="#DAA450" stroke-width="0.5" d="M65.365,23.703c0,0-11.771-2.389-13.322,3.709
					c-1.553,6.099-3.564,7.619-7.957,8.934c-4.393,1.315,12.221,3.171,13.771-2.926C59.41,27.321,65.365,23.703,65.365,23.703z"/>
				<path fill="none" stroke="#DAA450" stroke-width="0.5" d="M65.365,23.703c0,0-8.691,0.442-10.244,6.543
					c-1.553,6.098-7,5.583-11.393,6.9"/>
			</g>
			<g>
				
					<linearGradient id="SVGID_4_" gradientUnits="userSpaceOnUse" x1="-1269.8579" y1="864.502" x2="-1257.3604" y2="864.502" gradientTransform="matrix(-0.4183 0.9083 0.9083 0.4183 -1274.0758 815.8393)">
					<stop  offset="0.0056" style="stop-color:#FBC926"/>
					<stop  offset="0.2528" style="stop-color:#FFFBCC"/>
					<stop  offset="0.2986" style="stop-color:#F7EAB8"/>
					<stop  offset="0.3896" style="stop-color:#E7CF8E"/>
					<stop  offset="0.5159" style="stop-color:#D1A954"/>
					<stop  offset="0.5955" style="stop-color:#C3922E"/>
					<stop  offset="0.8143" style="stop-color:#E2C675"/>
					<stop  offset="0.8708" style="stop-color:#EED688"/>
					<stop  offset="1" style="stop-color:#FFFBCC"/>
				</linearGradient>
				<path fill="url(#SVGID_4_)" stroke="#DAA450" stroke-width="0.5" d="M30.59,20.639c0,0,12.006,0.376,12.117,6.67
					c0.111,6.291,1.721,8.229,5.693,10.519c3.975,2.29-12.621,0.283-12.734-6.009C35.557,25.527,30.59,20.639,30.59,20.639z"/>
				<path fill="none" stroke="#DAA450" stroke-width="0.5" d="M30.59,20.639c0,0,8.357,2.426,8.471,8.72
					c0.109,6.292,5.531,7.044,9.504,9.331"/>
			</g>
			<g>
				
					<linearGradient id="SVGID_5_" gradientUnits="userSpaceOnUse" x1="-1114.6719" y1="287.0039" x2="-1102.1729" y2="287.0039" gradientTransform="matrix(-0.9318 0.3629 0.3629 0.9318 -1088.8914 161.6324)">
					<stop  offset="0.0056" style="stop-color:#FBC926"/>
					<stop  offset="0.2528" style="stop-color:#FFFBCC"/>
					<stop  offset="0.2986" style="stop-color:#F7EAB8"/>
					<stop  offset="0.3896" style="stop-color:#E7CF8E"/>
					<stop  offset="0.5159" style="stop-color:#D1A954"/>
					<stop  offset="0.5955" style="stop-color:#C3922E"/>
					<stop  offset="0.8143" style="stop-color:#E2C675"/>
					<stop  offset="0.8708" style="stop-color:#EED688"/>
					<stop  offset="1" style="stop-color:#FFFBCC"/>
				</linearGradient>
				<path fill="url(#SVGID_5_)" stroke="#DAA450" stroke-width="0.5" d="M47.834,13.938c0,0,8.375,8.609,4.084,13.217
					c-4.291,4.602-4.48,7.113-3.211,11.52c1.27,4.41-9.277-8.563-4.988-13.167C48.01,20.905,47.834,13.938,47.834,13.938z"/>
				<path fill="none" stroke="#DAA450" stroke-width="0.5" d="M47.834,13.938c0,0,4.326,7.553,0.035,12.157
					c-4.291,4.603-0.912,8.908,0.357,13.315"/>
			</g>
			<g>
				
					<linearGradient id="SVGID_6_" gradientUnits="userSpaceOnUse" x1="-43.5298" y1="73.1309" x2="-31.0322" y2="73.1309" gradientTransform="matrix(1 0.0031 -0.0031 1 81.3518 -46.4734)">
					<stop  offset="0.0056" style="stop-color:#FBC926"/>
					<stop  offset="0.2528" style="stop-color:#FFFBCC"/>
					<stop  offset="0.2986" style="stop-color:#F7EAB8"/>
					<stop  offset="0.3896" style="stop-color:#E7CF8E"/>
					<stop  offset="0.5159" style="stop-color:#D1A954"/>
					<stop  offset="0.5955" style="stop-color:#C3922E"/>
					<stop  offset="0.8143" style="stop-color:#E2C675"/>
					<stop  offset="0.8708" style="stop-color:#EED688"/>
					<stop  offset="1" style="stop-color:#FFFBCC"/>
				</linearGradient>
				<path fill="url(#SVGID_6_)" stroke="#DAA450" stroke-width="0.5" d="M39.447,14.437c0,0-4.713,11.046,0.947,13.799
					c5.66,2.749,6.742,5.024,7.145,9.592c0.404,4.57,5.57-11.329-0.09-14.078C41.789,20.998,39.447,14.437,39.447,14.437z"/>
				<path fill="none" stroke="#DAA450" stroke-width="0.5" d="M39.447,14.437c0,0-1.318,8.601,4.342,11.353
					c5.662,2.75,4.059,7.982,4.463,12.551"/>
			</g>
			<g>
				
					<linearGradient id="SVGID_7_" gradientUnits="userSpaceOnUse" x1="-279.709" y1="-21.6221" x2="-267.2104" y2="-21.6221" gradientTransform="matrix(0.948 0.3182 -0.3182 0.948 297.9044 133.7442)">
					<stop  offset="0.0056" style="stop-color:#FBC926"/>
					<stop  offset="0.2528" style="stop-color:#FFFBCC"/>
					<stop  offset="0.2986" style="stop-color:#F7EAB8"/>
					<stop  offset="0.3896" style="stop-color:#E7CF8E"/>
					<stop  offset="0.5159" style="stop-color:#D1A954"/>
					<stop  offset="0.5955" style="stop-color:#C3922E"/>
					<stop  offset="0.8143" style="stop-color:#E2C675"/>
					<stop  offset="0.8708" style="stop-color:#EED688"/>
					<stop  offset="1" style="stop-color:#FFFBCC"/>
				</linearGradient>
				<path fill="url(#SVGID_7_)" stroke="#DAA450" stroke-width="0.5" d="M45.189,13.355c0,0-7.957,8.998-3.451,13.395
					c4.504,4.394,4.813,6.895,3.754,11.357c-1.057,4.462,8.859-8.998,4.357-13.391C45.344,20.322,45.189,13.355,45.189,13.355z"/>
				<path fill="none" stroke="#DAA450" stroke-width="0.5" d="M45.189,13.355c0,0-3.963,7.748,0.543,12.144
					c4.504,4.396,1.332,8.856,0.275,13.317"/>
			</g>
		</g>
		<radialGradient id="SVGID_8_" cx="46.1963" cy="39.7891" r="3.2008" fx="45.9004" fy="39.8159" gradientUnits="userSpaceOnUse">
			<stop  offset="0" style="stop-color:#FFFBCC"/>
			<stop  offset="0.1336" style="stop-color:#F7EAB8"/>
			<stop  offset="0.3991" style="stop-color:#E7CF8E"/>
			<stop  offset="0.7678" style="stop-color:#D1A954"/>
			<stop  offset="1" style="stop-color:#C3922E"/>
		</radialGradient>
		<rect x="44.369" y="38.984" fill="url(#SVGID_8_)" stroke="#DAA450" stroke-width="0.3" width="5.439" height="2.948"/>
		
			<radialGradient id="SVGID_9_" cx="45.3359" cy="-273.3027" r="5.6187" fx="44.8166" fy="-273.2556" gradientTransform="matrix(1 0 0 0.6913 0 226.4386)" gradientUnits="userSpaceOnUse">
			<stop  offset="0" style="stop-color:#FFFBCC"/>
			<stop  offset="0.1336" style="stop-color:#F7EAB8"/>
			<stop  offset="0.3991" style="stop-color:#E7CF8E"/>
			<stop  offset="0.7678" style="stop-color:#D1A954"/>
			<stop  offset="1" style="stop-color:#C3922E"/>
		</radialGradient>
		<rect x="41.75" y="36.979" fill="url(#SVGID_9_)" stroke="#DAA450" stroke-width="0.3" width="10.676" height="1.926"/>
		<radialGradient id="SVGID_10_" cx="44.4287" cy="46.127" r="12.1575" fx="43.3049" fy="46.2289" gradientUnits="userSpaceOnUse">
			<stop  offset="0" style="stop-color:#FFFBCC"/>
			<stop  offset="0.1336" style="stop-color:#F7EAB8"/>
			<stop  offset="0.3991" style="stop-color:#E7CF8E"/>
			<stop  offset="0.7678" style="stop-color:#D1A954"/>
			<stop  offset="1" style="stop-color:#C3922E"/>
		</radialGradient>
		<path fill="url(#SVGID_10_)" stroke="#DAA450" stroke-width="0.3" d="M55.189,49.803c0,4.475-3.627,8.104-8.1,8.104
			c-4.477,0-8.104-3.629-8.104-8.104c0-4.473,3.627-8.1,8.104-8.1C51.563,41.703,55.189,45.33,55.189,49.803z"/>
	</g>
</g>
</svg>
