<?xml version="1.0" encoding="utf-8"?>
<!-- Generator: Adobe Illustrator 13.0.1, SVG Export Plug-In . SVG Version: 6.00 Build 14948)  -->
<!DOCTYPE svg PUBLIC "-//W3C//DTD SVG 1.1//EN" "http://www.w3.org/Graphics/SVG/1.1/DTD/svg11.dtd">
<svg version="1.1" id="Layer_1" xmlns="http://www.w3.org/2000/svg" xmlns:xlink="http://www.w3.org/1999/xlink" x="0px" y="0px"
	 width="95.955px" height="100.144px" viewBox="0 0 95.955 100.144" enable-background="new 0 0 95.955 100.144"
	 xml:space="preserve">
<g>
	<polygon fill="#BF1E2D" points="95.955,0 0,0 0,53.162 49.43,100.144 95.955,52.73 	"/>
	<g>
		<g>
			<polygon fill="#FBB040" points="88.951,50.098 47.979,89.937 7.006,50.098 7.006,36.517 47.979,76.357 88.951,36.517 			"/>
		</g>
	</g>
	<g>
		<g>
			<g>
				
					<linearGradient id="SVGID_1_" gradientUnits="userSpaceOnUse" x1="-1080.9023" y1="150.0386" x2="-1068.4043" y2="150.0386" gradientTransform="matrix(-0.9936 0.1125 0.1125 0.9936 -1033.4286 2.9597)">
					<stop  offset="0.0056" style="stop-color:#FBC926"/>
					<stop  offset="0.2528" style="stop-color:#FFFBCC"/>
					<stop  offset="0.2986" style="stop-color:#F7EAB8"/>
					<stop  offset="0.3896" style="stop-color:#E7CF8E"/>
					<stop  offset="0.5159" style="stop-color:#D1A954"/>
					<stop  offset="0.5955" style="stop-color:#C3922E"/>
					<stop  offset="0.8143" style="stop-color:#E2C675"/>
					<stop  offset="0.8708" style="stop-color:#EED688"/>
					<stop  offset="1" style="stop-color:#FFFBCC"/>
				</linearGradient>
				<path fill="url(#SVGID_1_)" stroke="#DAA450" stroke-width="0.5" d="M54.271,18.625c0,0,5.895,10.465,0.568,13.822
					c-5.324,3.352-6.15,5.73-6.051,10.314c0.1,4.588-6.777-10.65-1.453-14.003C52.66,25.405,54.271,18.625,54.271,18.625z"/>
				<path fill="none" stroke="#DAA450" stroke-width="0.5" d="M54.271,18.625c0,0,2.252,8.406-3.074,11.762
					c-5.326,3.354-3.16,8.379-3.061,12.964"/>
			</g>
			<g>
				
					<linearGradient id="SVGID_2_" gradientUnits="userSpaceOnUse" x1="-864.8613" y1="5.5815" x2="-852.3633" y2="5.5815" gradientTransform="matrix(0.4975 0.8675 -0.8675 0.4975 485.2763 775.2026)">
					<stop  offset="0.0056" style="stop-color:#FBC926"/>
					<stop  offset="0.2528" style="stop-color:#FFFBCC"/>
					<stop  offset="0.2986" style="stop-color:#F7EAB8"/>
					<stop  offset="0.3896" style="stop-color:#E7CF8E"/>
					<stop  offset="0.5159" style="stop-color:#D1A954"/>
					<stop  offset="0.5955" style="stop-color:#C3922E"/>
					<stop  offset="0.8143" style="stop-color:#E2C675"/>
					<stop  offset="0.8708" style="stop-color:#EED688"/>
					<stop  offset="1" style="stop-color:#FFFBCC"/>
				</linearGradient>
				<path fill="url(#SVGID_2_)" stroke="#DAA450" stroke-width="0.5" d="M61.559,23.271c0,0-11.924,1.442-11.475,7.721
					c0.449,6.277-0.979,8.352-4.732,10.984c-3.756,2.635,12.596-0.842,12.146-7.118S61.559,23.271,61.559,23.271z"/>
				<path fill="none" stroke="#DAA450" stroke-width="0.5" d="M61.559,23.271c0,0-8.107,3.16-7.658,9.438s-4.883,7.508-8.637,10.143
					"/>
			</g>
			<g>
				
					<linearGradient id="SVGID_3_" gradientUnits="userSpaceOnUse" x1="-1080.9956" y1="154.7905" x2="-1068.498" y2="154.7905" gradientTransform="matrix(0.1986 0.9801 -0.9801 0.1986 419.5499 1057.0685)">
					<stop  offset="0.0056" style="stop-color:#FBC926"/>
					<stop  offset="0.2528" style="stop-color:#FFFBCC"/>
					<stop  offset="0.2986" style="stop-color:#F7EAB8"/>
					<stop  offset="0.3896" style="stop-color:#E7CF8E"/>
					<stop  offset="0.5159" style="stop-color:#D1A954"/>
					<stop  offset="0.5955" style="stop-color:#C3922E"/>
					<stop  offset="0.8143" style="stop-color:#E2C675"/>
					<stop  offset="0.8708" style="stop-color:#EED688"/>
					<stop  offset="1" style="stop-color:#FFFBCC"/>
				</linearGradient>
				<path fill="url(#SVGID_3_)" stroke="#DAA450" stroke-width="0.5" d="M65.365,27.703c0,0-11.771-2.389-13.322,3.709
					c-1.553,6.099-3.564,7.619-7.957,8.934c-4.393,1.315,12.221,3.171,13.771-2.926C59.41,31.321,65.365,27.703,65.365,27.703z"/>
				<path fill="none" stroke="#DAA450" stroke-width="0.5" d="M65.365,27.703c0,0-8.691,0.442-10.244,6.543
					c-1.553,6.098-7,5.583-11.393,6.9"/>
			</g>
			<g>
				
					<linearGradient id="SVGID_4_" gradientUnits="userSpaceOnUse" x1="-1339.2017" y1="912.9116" x2="-1326.7036" y2="912.9116" gradientTransform="matrix(-0.4183 0.9083 0.9083 0.4183 -1347.0522 862.5745)">
					<stop  offset="0.0056" style="stop-color:#FBC926"/>
					<stop  offset="0.2528" style="stop-color:#FFFBCC"/>
					<stop  offset="0.2986" style="stop-color:#F7EAB8"/>
					<stop  offset="0.3896" style="stop-color:#E7CF8E"/>
					<stop  offset="0.5159" style="stop-color:#D1A954"/>
					<stop  offset="0.5955" style="stop-color:#C3922E"/>
					<stop  offset="0.8143" style="stop-color:#E2C675"/>
					<stop  offset="0.8708" style="stop-color:#EED688"/>
					<stop  offset="1" style="stop-color:#FFFBCC"/>
				</linearGradient>
				<path fill="url(#SVGID_4_)" stroke="#DAA450" stroke-width="0.5" d="M30.59,24.639c0,0,12.006,0.376,12.117,6.67
					c0.111,6.291,1.721,8.229,5.693,10.519c3.975,2.29-12.621,0.283-12.734-6.009C35.557,29.527,30.59,24.639,30.59,24.639z"/>
				<path fill="none" stroke="#DAA450" stroke-width="0.5" d="M30.59,24.639c0,0,8.357,2.426,8.471,8.72
					c0.109,6.292,5.531,7.044,9.504,9.331"/>
			</g>
			<g>
				
					<linearGradient id="SVGID_5_" gradientUnits="userSpaceOnUse" x1="-1218.563" y1="310.521" x2="-1206.0645" y2="310.521" gradientTransform="matrix(-0.9318 0.3629 0.3629 0.9318 -1194.2318 181.4211)">
					<stop  offset="0.0056" style="stop-color:#FBC926"/>
					<stop  offset="0.2528" style="stop-color:#FFFBCC"/>
					<stop  offset="0.2986" style="stop-color:#F7EAB8"/>
					<stop  offset="0.3896" style="stop-color:#E7CF8E"/>
					<stop  offset="0.5159" style="stop-color:#D1A954"/>
					<stop  offset="0.5955" style="stop-color:#C3922E"/>
					<stop  offset="0.8143" style="stop-color:#E2C675"/>
					<stop  offset="0.8708" style="stop-color:#EED688"/>
					<stop  offset="1" style="stop-color:#FFFBCC"/>
				</linearGradient>
				<path fill="url(#SVGID_5_)" stroke="#DAA450" stroke-width="0.5" d="M47.834,17.938c0,0,8.375,8.609,4.084,13.217
					c-4.291,4.602-4.48,7.113-3.211,11.52c1.27,4.41-9.277-8.563-4.988-13.167C48.01,24.905,47.834,17.938,47.834,17.938z"/>
				<path fill="none" stroke="#DAA450" stroke-width="0.5" d="M47.834,17.938c0,0,4.326,7.553,0.035,12.157
					c-4.291,4.603-0.912,8.908,0.357,13.315"/>
			</g>
			<g>
				
					<linearGradient id="SVGID_6_" gradientUnits="userSpaceOnUse" x1="-43.4971" y1="76.9585" x2="-30.999" y2="76.9585" gradientTransform="matrix(1 0.0031 -0.0031 1 81.3307 -46.3004)">
					<stop  offset="0.0056" style="stop-color:#FBC926"/>
					<stop  offset="0.2528" style="stop-color:#FFFBCC"/>
					<stop  offset="0.2986" style="stop-color:#F7EAB8"/>
					<stop  offset="0.3896" style="stop-color:#E7CF8E"/>
					<stop  offset="0.5159" style="stop-color:#D1A954"/>
					<stop  offset="0.5955" style="stop-color:#C3922E"/>
					<stop  offset="0.8143" style="stop-color:#E2C675"/>
					<stop  offset="0.8708" style="stop-color:#EED688"/>
					<stop  offset="1" style="stop-color:#FFFBCC"/>
				</linearGradient>
				<path fill="url(#SVGID_6_)" stroke="#DAA450" stroke-width="0.5" d="M39.447,18.437c0,0-4.713,11.046,0.947,13.799
					c5.66,2.749,6.742,5.024,7.145,9.592c0.404,4.57,5.57-11.329-0.09-14.078C41.789,24.998,39.447,18.437,39.447,18.437z"/>
				<path fill="none" stroke="#DAA450" stroke-width="0.5" d="M39.447,18.437c0,0-1.318,8.601,4.342,11.353
					c5.662,2.75,4.059,7.982,4.463,12.551"/>
			</g>
			<g>
				
					<linearGradient id="SVGID_7_" gradientUnits="userSpaceOnUse" x1="-279.1729" y1="-35.9419" x2="-266.6743" y2="-35.9419" gradientTransform="matrix(0.948 0.3182 -0.3182 0.948 292.8395 151.1484)">
					<stop  offset="0.0056" style="stop-color:#FBC926"/>
					<stop  offset="0.2528" style="stop-color:#FFFBCC"/>
					<stop  offset="0.2986" style="stop-color:#F7EAB8"/>
					<stop  offset="0.3896" style="stop-color:#E7CF8E"/>
					<stop  offset="0.5159" style="stop-color:#D1A954"/>
					<stop  offset="0.5955" style="stop-color:#C3922E"/>
					<stop  offset="0.8143" style="stop-color:#E2C675"/>
					<stop  offset="0.8708" style="stop-color:#EED688"/>
					<stop  offset="1" style="stop-color:#FFFBCC"/>
				</linearGradient>
				<path fill="url(#SVGID_7_)" stroke="#DAA450" stroke-width="0.5" d="M45.189,17.355c0,0-7.957,8.998-3.451,13.395
					c4.504,4.394,4.813,6.895,3.754,11.357c-1.057,4.462,8.859-8.998,4.357-13.391C45.344,24.322,45.189,17.355,45.189,17.355z"/>
				<path fill="none" stroke="#DAA450" stroke-width="0.5" d="M45.189,17.355c0,0-3.963,7.748,0.543,12.144
					c4.504,4.396,1.332,8.856,0.275,13.317"/>
			</g>
		</g>
		<radialGradient id="SVGID_8_" cx="46.1963" cy="43.7891" r="3.2008" fx="45.9004" fy="43.8159" gradientUnits="userSpaceOnUse">
			<stop  offset="0" style="stop-color:#FFFBCC"/>
			<stop  offset="0.1336" style="stop-color:#F7EAB8"/>
			<stop  offset="0.3991" style="stop-color:#E7CF8E"/>
			<stop  offset="0.7678" style="stop-color:#D1A954"/>
			<stop  offset="1" style="stop-color:#C3922E"/>
		</radialGradient>
		<rect x="44.369" y="42.984" fill="url(#SVGID_8_)" stroke="#DAA450" stroke-width="0.3" width="5.439" height="2.948"/>
		
			<radialGradient id="SVGID_9_" cx="45.3359" cy="-264.4814" r="5.6187" fx="44.8166" fy="-264.4343" gradientTransform="matrix(1 0 0 0.6913 0 224.3402)" gradientUnits="userSpaceOnUse">
			<stop  offset="0" style="stop-color:#FFFBCC"/>
			<stop  offset="0.1336" style="stop-color:#F7EAB8"/>
			<stop  offset="0.3991" style="stop-color:#E7CF8E"/>
			<stop  offset="0.7678" style="stop-color:#D1A954"/>
			<stop  offset="1" style="stop-color:#C3922E"/>
		</radialGradient>
		<rect x="41.75" y="40.979" fill="url(#SVGID_9_)" stroke="#DAA450" stroke-width="0.3" width="10.676" height="1.926"/>
		<radialGradient id="SVGID_10_" cx="44.4287" cy="50.1265" r="12.1575" fx="43.3049" fy="50.2284" gradientUnits="userSpaceOnUse">
			<stop  offset="0" style="stop-color:#FFFBCC"/>
			<stop  offset="0.1336" style="stop-color:#F7EAB8"/>
			<stop  offset="0.3991" style="stop-color:#E7CF8E"/>
			<stop  offset="0.7678" style="stop-color:#D1A954"/>
			<stop  offset="1" style="stop-color:#C3922E"/>
		</radialGradient>
		<path fill="url(#SVGID_10_)" stroke="#DAA450" stroke-width="0.3" d="M55.189,53.802c0,4.475-3.627,8.104-8.1,8.104
			c-4.477,0-8.104-3.629-8.104-8.104c0-4.472,3.627-8.099,8.104-8.099C51.563,45.703,55.189,49.33,55.189,53.802z"/>
	</g>
</g>
</svg>
